<?xml version="1.0" standalone="no"?>
<!DOCTYPE svg PUBLIC "-//W3C//DTD SVG 1.1//EN" "http://www.w3.org/Graphics/SVG/1.1/DTD/svg11.dtd" >
<svg>
<metadata>
Created by FontForge 20120731 at Tue Sep 15 16:50:00 2020
 By ffonts
Copyright \(c\) 2017 by MadeType. All rights reserved.
</metadata>
<defs>
<font id="MADEGoodTimeGrotesk" horiz-adv-x="647" >
  <font-face 
    font-family="MADE GoodTime Grotesk"
    font-weight="400"
    font-stretch="normal"
    units-per-em="1000"
    panose-1="2 0 5 3 0 0 0 2 0 4"
    ascent="800"
    descent="-200"
    x-height="480"
    cap-height="700"
    bbox="-22 -299.364 1404 991"
    underline-thickness="50"
    underline-position="-50"
    unicode-range="U+0020-F6C3"
  />
<missing-glyph horiz-adv-x="359" 
 />
    <glyph glyph-name=".notdef" horiz-adv-x="359" 
 />
    <glyph glyph-name="B" unicode="B" horiz-adv-x="723" 
d="M533 373c81 -32 110 -101 110 -165c0 -122 -81 -208 -266 -208h-297v700h286c151 0 232 -77 232 -193c0 -40 -16 -98 -65 -134zM367 538h-96v-96h96c43 0 63 21 63 48s-20 48 -63 48zM395 162c49 0 76 27 76 59c0 33 -27 59 -76 59h-124v-118h124z" />
    <glyph glyph-name="C" unicode="C" horiz-adv-x="795" 
d="M478 156c52 0 100 19 143 50l94 -134c-70 -54 -147 -87 -237 -87c-227 0 -398 163 -398 365s171 366 398 366c90 0 167 -33 237 -88l-94 -133c-43 32 -91 49 -143 49c-120 0 -211 -85 -211 -194c0 -108 91 -194 211 -194z" />
    <glyph glyph-name="D" unicode="D" horiz-adv-x="825" 
d="M356 700c262 0 389 -162 389 -350s-128 -350 -389 -350h-276v700h276zM343 162c160 0 224 85 224 188c0 104 -64 188 -224 188h-72v-376h72z" />
    <glyph glyph-name="E" unicode="E" horiz-adv-x="683" 
d="M271 162h332v-162h-523v700h506v-162h-315v-107h284v-162h-284v-107z" />
    <glyph glyph-name="F" unicode="F" horiz-adv-x="666" 
d="M586 538h-314v-107h283v-162h-283v-269h-192v700h506v-162z" />
    <glyph glyph-name="G" unicode="G" horiz-adv-x="837" 
d="M421 431h336v-359c-70 -54 -189 -87 -280 -87c-227 0 -397 154 -397 365c0 212 181 366 408 366c90 0 167 -33 237 -88l-94 -133c-42 30 -91 51 -143 51c-120 0 -222 -87 -222 -196c0 -108 91 -196 211 -196c34 0 65 5 101 14v101h-157v162z" />
    <glyph glyph-name="H" unicode="H" horiz-adv-x="777" 
d="M506 700h191v-700h-191v269h-235v-269h-191v700h191v-269h235v269z" />
    <glyph glyph-name="I" unicode="I" horiz-adv-x="352" 
d="M81 700h191v-700h-191v700z" />
    <glyph glyph-name="J" unicode="J" horiz-adv-x="675" 
d="M404 700h191v-414c0 -200 -115 -301 -264 -301c-115 0 -175 35 -251 109l108 110c40 -40 70 -51 115 -51c66 0 101 43 101 127v420z" />
    <glyph glyph-name="K" unicode="K" horiz-adv-x="767" 
d="M687 0h-223l-193 308v-308h-191v700h191v-292l165 292h223l-202 -339z" />
    <glyph glyph-name="L" unicode="L" 
d="M272 162h295v-162h-487v700h192v-538z" />
    <glyph glyph-name="M" unicode="M" horiz-adv-x="966" 
d="M716 700h170v-700h-191v379l-170 -213h-84l-170 213v-379h-191v700h170l233 -309z" />
    <glyph glyph-name="N" unicode="N" horiz-adv-x="765" 
d="M80 700h170l243 -371v371h192v-700h-170l-243 372v-372h-192v700z" />
    <glyph glyph-name="O" unicode="O" horiz-adv-x="913" 
d="M457 716c202 0 376 -164 376 -366s-174 -365 -376 -365s-377 163 -377 365s175 366 377 366zM457 159c106 0 192 85 192 191s-86 192 -192 192s-192 -86 -192 -192s86 -191 192 -191z" />
    <glyph glyph-name="P" unicode="P" horiz-adv-x="721" 
d="M368 700c169 0 273 -114 273 -248s-104 -249 -273 -249h-96v-203h-192v700h288zM361 365c82 0 107 43 107 87s-25 86 -107 86h-89v-173h89z" />
    <glyph glyph-name="Q" unicode="Q" horiz-adv-x="913" 
d="M833 -16l-153 -115l-102 136c-38 -13 -79 -20 -121 -20c-202 0 -377 163 -377 365s175 366 377 366s376 -164 376 -366c0 -92 -36 -176 -95 -240zM265 350c0 -106 86 -191 192 -191s191 85 191 191s-85 192 -191 192s-192 -86 -192 -192z" />
    <glyph glyph-name="R" unicode="R" horiz-adv-x="761" 
d="M471 0l-130 225h-70v-225h-191v700h287c169 0 274 -104 274 -237c0 -84 -41 -156 -113 -198l153 -265h-210zM271 538v-151h89c82 0 108 31 108 76c0 44 -26 75 -108 75h-89z" />
    <glyph glyph-name="S" unicode="S" horiz-adv-x="757" 
d="M325 512c-23 -108 369 -71 351 -323c-15 -198 -214 -216 -329 -204c-107 11 -209 58 -267 101l88 145c79 -90 285 -121 301 -44c27 126 -371 59 -337 338c13 104 89 203 303 191c136 -8 203 -56 218 -68l-68 -150c-64 61 -243 96 -260 14z" />
    <glyph glyph-name="T" unicode="T" horiz-adv-x="761" 
d="M681 700v-162h-205v-538h-191v538h-205v162h601z" />
    <glyph glyph-name="U" unicode="U" horiz-adv-x="777" 
d="M505 700h192v-414c0 -201 -140 -301 -309 -301s-308 100 -308 301v414h191v-420s52 -127 117 -127s117 43 117 127v420z" />
    <glyph glyph-name="V" unicode="V" horiz-adv-x="907" 
d="M612 700h215l-269 -700h-209l-269 700h215l158 -444z" />
    <glyph glyph-name="W" unicode="W" horiz-adv-x="1351" 
d="M1046 700h225l-269 -700h-209l-118 364l-117 -364h-210l-268 700h225l140 -431l124 431h213l124 -431z" />
    <glyph glyph-name="X" unicode="X" horiz-adv-x="843" 
d="M763 0h-206l-131 228l-133 -228h-213l229 361l-211 339h204l122 -203l115 203h204l-202 -336z" />
    <glyph glyph-name="Y" unicode="Y" horiz-adv-x="851" 
d="M556 700h215l-250 -444v-256h-191v256l-250 444h215l130 -262z" />
    <glyph glyph-name="Z" unicode="Z" horiz-adv-x="674" 
d="M306 162h288v-162h-514v141l282 397h-265v162h489v-142z" />
    <glyph glyph-name="afii10017" unicode="&#x410;" horiz-adv-x="898" 
d="M603 0l-43 124h-222l-43 -124h-213l264 700h205l265 -700h-213zM395 286h108l-54 154z" />
    <glyph glyph-name="afii10019" unicode="&#x412;" horiz-adv-x="723" 
d="M533 373c81 -32 110 -101 110 -165c0 -122 -81 -208 -266 -208h-297v700h286c151 0 232 -77 232 -193c0 -40 -16 -98 -65 -134zM367 538h-96v-96h96c43 0 63 21 63 48s-20 48 -63 48zM395 162c49 0 76 27 76 59c0 33 -27 59 -76 59h-124v-118h124z" />
    <glyph glyph-name="afii10022" unicode="&#x415;" horiz-adv-x="683" 
d="M271 162h332v-162h-523v700h506v-162h-315v-107h284v-162h-284v-107z" />
    <glyph glyph-name="afii10028" unicode="&#x41a;" horiz-adv-x="767" 
d="M687 0h-223l-193 308v-308h-191v700h191v-292l165 292h223l-202 -339z" />
    <glyph glyph-name="afii10030" unicode="&#x41c;" horiz-adv-x="966" 
d="M716 700h170v-700h-191v379l-170 -213h-84l-170 213v-379h-191v700h170l233 -309z" />
    <glyph glyph-name="afii10031" unicode="&#x41d;" horiz-adv-x="777" 
d="M506 700h191v-700h-191v269h-235v-269h-191v700h191v-269h235v269z" />
    <glyph glyph-name="afii10032" unicode="&#x41e;" horiz-adv-x="913" 
d="M457 716c202 0 376 -164 376 -366s-174 -365 -376 -365s-377 163 -377 365s175 366 377 366zM457 159c106 0 192 85 192 191s-86 192 -192 192s-192 -86 -192 -192s86 -191 192 -191z" />
    <glyph glyph-name="afii10034" unicode="&#x420;" horiz-adv-x="721" 
d="M368 700c169 0 273 -114 273 -248s-104 -249 -273 -249h-96v-203h-192v700h288zM361 365c82 0 107 43 107 87s-25 86 -107 86h-89v-173h89z" />
    <glyph glyph-name="afii10035" unicode="&#x421;" horiz-adv-x="795" 
d="M478 156c52 0 100 19 143 50l94 -134c-70 -54 -147 -87 -237 -87c-227 0 -398 163 -398 365s171 366 398 366c90 0 167 -33 237 -88l-94 -133c-43 32 -91 49 -143 49c-120 0 -211 -85 -211 -194c0 -108 91 -194 211 -194z" />
    <glyph glyph-name="afii10036" unicode="&#x422;" horiz-adv-x="761" 
d="M681 700v-162h-205v-538h-191v538h-205v162h601z" />
    <glyph glyph-name="afii10039" unicode="&#x425;" horiz-adv-x="843" 
d="M763 0h-206l-131 228l-133 -228h-213l229 361l-211 339h204l122 -203l115 203h204l-202 -336z" />
    <glyph glyph-name="afii10018" unicode="&#x411;" horiz-adv-x="730" 
d="M382 442c171 0 268 -99 268 -221s-90 -221 -268 -221h-302v700h488v-162h-296v-96h110zM399 162c50 0 76 26 76 59c0 32 -26 59 -76 59h-127v-118h127z" />
    <glyph glyph-name="afii10020" unicode="&#x413;" 
d="M567 700v-162h-295v-538h-192v700h487z" />
    <glyph glyph-name="afii10021" unicode="&#x414;" horiz-adv-x="906" 
d="M743 162h83v-308h-192v146h-362v-146h-192v308h75c8 20 17 47 24 75c29 117 38 463 38 463h526v-538zM348 162h203v376h-157c-6 -109 -16 -244 -28 -306c-6 -30 -12 -53 -18 -70z" />
    <glyph glyph-name="afii10023" unicode="&#x401;" horiz-adv-x="683" 
d="M315 864c0 -45 -37 -82 -83 -82c-45 0 -82 37 -82 82c0 46 37 83 82 83c46 0 83 -37 83 -83zM536 864c0 -45 -37 -82 -83 -82c-45 0 -82 37 -82 82c0 46 37 83 82 83c46 0 83 -37 83 -83zM271 162h332v-162h-523v700h506v-162h-315v-107h284v-162h-284v-107z" />
    <glyph glyph-name="afii10024" unicode="&#x416;" horiz-adv-x="1185" 
d="M1105 0h-223l-193 308v-308h-191v311l-195 -311h-223l230 361l-202 339h223l167 -296v296h191v-292l165 292h224l-203 -339z" />
    <glyph glyph-name="afii10025" unicode="&#x417;" horiz-adv-x="692" 
d="M495 373c85 -32 117 -102 117 -165c0 -122 -84 -223 -277 -223c-154 0 -255 92 -255 92l73 124s53 -61 163 -61c83 0 123 45 123 83c0 40 -25 65 -89 65h-110v147h87c55 0 77 35 78 63c1 35 -30 67 -80 71c-100 8 -160 -53 -160 -53l-56 116s81 84 225 84
c150 0 239 -80 239 -196c0 -40 -27 -106 -78 -147z" />
    <glyph glyph-name="afii10026" unicode="&#x418;" horiz-adv-x="765" 
d="M250 0h-170v700h192v-372l243 372h170v-700h-192v372z" />
    <glyph glyph-name="afii10027" unicode="&#x419;" horiz-adv-x="765" 
d="M383 899c38 0 68 32 68 71h119c0 -103 -85 -188 -187 -188c-103 0 -188 85 -188 188h120c0 -39 29 -71 68 -71zM250 0h-170v700h192v-372l243 372h170v-700h-192v372z" />
    <glyph glyph-name="afii10029" unicode="&#x41b;" horiz-adv-x="842" 
d="M248 700h514v-700h-191v538h-150c-4 -117 -11 -264 -14 -325c-8 -152 -78 -228 -171 -228c-96 0 -156 42 -156 42l47 138c55 -29 98 -29 105 95c6 101 16 440 16 440z" />
    <glyph glyph-name="afii10033" unicode="&#x41f;" horiz-adv-x="777" 
d="M80 700h617v-700h-192v538h-234v-538h-191v700z" />
    <glyph glyph-name="afii10037" unicode="&#x423;" horiz-adv-x="813" 
d="M524 700h209s-112 -256 -157 -358c-37 -85 -134 -341 -314 -357c-87 -8 -148 45 -148 45l55 132c73 -40 117 -19 164 64l-253 474h209l131 -297z" />
    <glyph glyph-name="afii10038" unicode="&#x424;" horiz-adv-x="1046" 
d="M966 350c0 -173 -137 -285 -347 -311v-105h-191v105c-211 26 -348 138 -348 311c0 197 141 306 348 331v85h191v-85c207 -25 347 -134 347 -331zM283 360c0 -81 58 -132 145 -152v304c-86 -20 -145 -69 -145 -152zM619 208c86 20 144 71 144 152c0 83 -59 132 -144 152
v-304z" />
    <glyph glyph-name="afii10040" unicode="&#x426;" horiz-adv-x="860" 
d="M697 162h83v-307h-192v145h-508v700h191v-538h234v538h192v-538z" />
    <glyph glyph-name="afii10041" unicode="&#x427;" horiz-adv-x="739" 
d="M468 700h191v-700h-191v227c-19 -12 -67 -24 -103 -25c-196 -7 -285 99 -285 254v244h192v-224c0 -88 39 -109 107 -109c43 1 68 10 89 26v307z" />
    <glyph glyph-name="afii10042" unicode="&#x428;" horiz-adv-x="1118" 
d="M846 700h192v-700h-958v700h192v-538h191v538h192v-538h191v538z" />
    <glyph glyph-name="afii10043" unicode="&#x429;" horiz-adv-x="1200" 
d="M1037 162h83v-307h-191v145h-849v700h191v-538h192v538h191v-538h192v538h191v-538z" />
    <glyph glyph-name="afii10044" unicode="&#x42a;" horiz-adv-x="875" 
d="M521 497c169 0 274 -115 274 -248c0 -134 -105 -249 -274 -249h-287v538h-154v162h346v-203h95zM515 162c81 0 107 43 107 87s-26 86 -107 86h-89v-173h89z" />
    <glyph glyph-name="afii10045" unicode="&#x42b;" horiz-adv-x="982" 
d="M902 700v-700h-191v700h191zM367 497c169 0 273 -115 273 -248c0 -134 -104 -249 -273 -249h-287v700h192v-203h95zM360 162c82 0 108 43 108 87s-26 86 -108 86h-88v-173h88z" />
    <glyph glyph-name="afii10046" unicode="&#x42c;" horiz-adv-x="720" 
d="M367 497c169 0 273 -115 273 -248c0 -134 -104 -249 -273 -249h-287v700h191v-203h96zM360 162c82 0 107 43 107 87s-25 86 -107 86h-89v-173h89z" />
    <glyph glyph-name="afii10047" unicode="&#x42d;" horiz-adv-x="795" 
d="M317 716c227 0 398 -164 398 -366s-171 -365 -398 -365c-90 0 -167 33 -237 87l94 134c43 -31 91 -50 143 -50c88 0 160 46 193 113h-239v162h239c-33 67 -105 113 -193 113c-52 0 -100 -17 -143 -49l-94 133c70 55 147 88 237 88z" />
    <glyph glyph-name="afii10048" unicode="&#x42e;" horiz-adv-x="1191" 
d="M735 716c202 0 376 -164 376 -366s-174 -365 -376 -365c-174 0 -328 121 -367 284h-97v-269h-191v700h191v-269h97c39 163 193 285 367 285zM735 159c106 0 191 85 191 191s-85 192 -191 192s-192 -86 -192 -192s86 -191 192 -191z" />
    <glyph glyph-name="afii10049" unicode="&#x42f;" horiz-adv-x="761" 
d="M394 700h287v-700h-191v225h-70l-129 -225h-211l153 265c-71 42 -112 114 -112 197c0 134 104 238 273 238zM401 386h89v152h-89c-82 0 -107 -31 -107 -76c0 -44 25 -76 107 -76z" />
    <glyph glyph-name="a" unicode="a" horiz-adv-x="615" 
d="M318 496c107 0 217 -40 217 -188v-308h-168v47c-30 -40 -79 -62 -141 -62c-28 0 -141 18 -145 141c-3 104 67 151 137 163c45 8 115 12 149 13c0 20 -11 63 -70 63c-65 0 -124 -27 -147 -39l-46 109c36 25 120 61 214 61zM305 111c48 0 62 31 62 51v52s-67 3 -96 -18
c-36 -25 -24 -85 34 -85z" />
    <glyph glyph-name="b" unicode="b" horiz-adv-x="685" 
d="M384 496c135 0 221 -114 221 -255c0 -142 -86 -256 -221 -256c-50 0 -119 32 -136 62v-47h-168v700h168v-247c39 27 86 43 136 43zM344 129c53 0 93 50 93 111c0 62 -40 111 -93 111s-96 -49 -96 -111c0 -61 43 -111 96 -111z" />
    <glyph glyph-name="c" unicode="c" horiz-adv-x="620" 
d="M348 136c42 -2 75 16 103 39l89 -113c-47 -48 -120 -77 -192 -77c-150 0 -268 114 -268 255s114 256 268 256c72 0 144 -30 192 -77l-95 -110c-31 23 -60 37 -97 35c-55 -2 -108 -35 -108 -104c0 -63 53 -101 108 -104z" />
    <glyph glyph-name="d" unicode="d" horiz-adv-x="684" 
d="M80 241c0 141 85 255 221 255c50 0 96 -16 135 -43v247h168v-700h-168v47c-16 -30 -85 -62 -135 -62c-136 0 -221 114 -221 256zM248 240c0 -61 40 -111 93 -111c52 0 95 50 95 111c0 62 -43 111 -95 111c-53 0 -93 -49 -93 -111z" />
    <glyph glyph-name="e" unicode="e" horiz-adv-x="635" 
d="M550 181h-301c16 -36 48 -58 82 -63c67 -10 118 22 131 38l65 -91c-61 -56 -115 -80 -205 -80c-131 0 -242 114 -242 255s111 256 242 256c132 0 233 -104 233 -245c0 -24 -1 -47 -5 -70zM322 353c-40 0 -72 -26 -84 -70h172c-9 47 -44 70 -88 70z" />
    <glyph glyph-name="f" unicode="f" horiz-adv-x="581" 
d="M463 568c-56 21 -147 33 -147 -78v-10h124v-151h-124v-329h-169v329h-67v151h67v10c0 132 37 250 217 250c71 0 119 -20 137 -27z" />
    <glyph glyph-name="g" unicode="g" horiz-adv-x="684" 
d="M604 480v-424c0 -146 -36 -239 -162 -277c-50 -15 -109 -18 -160 -12c-63 7 -130 37 -183 71l52 114c39 -26 82 -46 126 -49c112 -10 154 35 158 84c1 15 1 39 1 40c-39 -27 -85 -43 -136 -43c-135 0 -220 115 -220 256s85 256 220 256c51 0 119 -33 136 -62v46h168z
M340 129c53 0 96 50 96 112c0 61 -43 111 -96 111c-52 0 -92 -50 -92 -111c0 -62 40 -112 92 -112z" />
    <glyph glyph-name="h" unicode="h" 
d="M384 496c122 0 183 -71 183 -188v-308h-168v287c0 55 -42 76 -71 76c-31 0 -78 -20 -80 -73v-290h-168v700h168v-266c29 33 84 62 136 62z" />
    <glyph glyph-name="i" unicode="i" horiz-adv-x="328" 
d="M164 536c-46 0 -83 37 -83 83s37 83 83 83s83 -37 83 -83s-37 -83 -83 -83zM80 480h168v-480h-168v480z" />
    <glyph glyph-name="j" unicode="j" horiz-adv-x="418" 
d="M337 619c0 -46 -37 -83 -83 -83s-83 37 -83 83s37 83 83 83s83 -37 83 -83zM170 480h168v-496c0 -148 -62 -195 -162 -195c-17 0 -72 8 -96 20l23 125c38 -11 67 -1 67 50v184v312z" />
    <glyph glyph-name="k" unicode="k" horiz-adv-x="646" 
d="M566 0h-184l-134 215v-215h-168v700h168v-424l115 204h184l-139 -233z" />
    <glyph glyph-name="l" unicode="l" horiz-adv-x="328" 
d="M80 700h168v-700h-168v700z" />
    <glyph glyph-name="m" unicode="m" horiz-adv-x="907" 
d="M659 496c122 0 168 -71 168 -188v-308h-168v287c0 55 -27 76 -56 76c-31 0 -63 -20 -65 -73v-290h-168v287c0 55 -27 76 -56 76c-31 0 -64 -20 -65 -73v-290h-169v480h169v-46c26 33 72 62 121 62c79 0 117 -30 145 -82c24 40 95 82 144 82z" />
    <glyph glyph-name="n" unicode="n" horiz-adv-x="648" 
d="M385 496c122 0 183 -70 183 -188v-308h-169l1 287c0 55 -42 76 -72 76s-78 -19 -79 -73v-290h-169v480h169v-46c29 33 83 62 136 62z" />
    <glyph glyph-name="o" unicode="o" horiz-adv-x="680" 
d="M340 496c141 0 260 -114 260 -256c0 -141 -119 -255 -260 -255s-260 114 -260 255c0 142 119 256 260 256zM340 138c57 0 103 46 103 102c0 57 -46 103 -103 103s-103 -46 -103 -103c0 -56 46 -102 103 -102z" />
    <glyph glyph-name="p" unicode="p" horiz-adv-x="685" 
d="M605 240c0 -141 -85 -255 -221 -255c-50 0 -96 15 -135 42v-246h-169v699h169v-46c16 30 85 62 135 62c136 0 221 -114 221 -256zM437 241c0 61 -40 111 -93 111c-52 0 -95 -50 -95 -111c0 -62 43 -111 95 -111c53 0 93 49 93 111z" />
    <glyph glyph-name="q" unicode="q" horiz-adv-x="685" 
d="M301 -15c-135 0 -221 114 -221 255c0 142 86 256 221 256c51 0 119 -32 136 -62v46h168v-699h-168v246c-39 -27 -85 -42 -136 -42zM341 352c-52 0 -92 -50 -92 -111c0 -62 40 -111 92 -111c53 0 96 49 96 111c0 61 -43 111 -96 111z" />
    <glyph glyph-name="r" unicode="r" horiz-adv-x="554" 
d="M387 496c36 0 75 -11 87 -16l-40 -176c-24 10 -51 25 -98 22c-34 -2 -87 -22 -87 -99v-227h-169v480h169v-46c15 21 75 62 138 62z" />
    <glyph glyph-name="s" unicode="s" horiz-adv-x="573" 
d="M277 344c1 -68 216 -36 216 -205c-1 -90 -67 -154 -207 -154c-62 0 -149 25 -206 67l51 111c75 -56 188 -71 193 -30c8 77 -227 37 -217 232c5 86 80 141 219 131c70 -5 147 -33 158 -42l-49 -112c-62 47 -158 44 -158 2z" />
    <glyph glyph-name="t" unicode="t" horiz-adv-x="548" 
d="M431 156l37 -138c-19 -12 -76 -33 -146 -33c-155 0 -175 118 -175 250v94h-67v151h67v103l169 21v-124h124v-151h-124v-90c0 -91 43 -118 115 -83z" />
    <glyph glyph-name="u" unicode="u" 
d="M263 -15c-122 0 -183 70 -183 187v308h168v-286c0 -55 42 -76 71 -76c31 0 78 19 80 73v289h168v-480h-168v47c-30 -34 -84 -62 -136 -62z" />
    <glyph glyph-name="v" unicode="v" horiz-adv-x="709" 
d="M629 480l-194 -480h-161l-194 480h185l89 -274l90 274h185z" />
    <glyph glyph-name="w" unicode="w" horiz-adv-x="968" 
d="M704 480h184l-157 -480h-161l-86 248l-86 -248h-161l-157 480h184l61 -263l78 263h163l77 -263z" />
    <glyph glyph-name="x" unicode="x" horiz-adv-x="679" 
d="M599 480l-143 -241l143 -239h-176l-82 137l-80 -137h-181l147 243l-147 237h189l73 -134l68 134h189z" />
    <glyph glyph-name="y" unicode="y" horiz-adv-x="713" 
d="M449 480h184s-88 -238 -126 -341c-35 -96 -108 -353 -286 -367c-83 -7 -141 41 -141 41l53 126c69 -38 121 12 153 95l-197 446h187l91 -281z" />
    <glyph glyph-name="z" unicode="z" horiz-adv-x="558" 
d="M293 152h185v-152h-398v130l176 199h-164v151h377v-130z" />
    <glyph glyph-name="afii10065" unicode="&#x430;" horiz-adv-x="615" 
d="M318 496c107 0 217 -40 217 -188v-308h-168v47c-30 -40 -79 -62 -141 -62c-28 0 -141 18 -145 141c-3 104 67 151 137 163c45 8 115 12 149 13c0 20 -11 63 -70 63c-65 0 -124 -27 -147 -39l-46 109c36 25 120 61 214 61zM305 111c48 0 62 31 62 51v52s-67 3 -96 -18
c-36 -25 -24 -85 34 -85z" />
    <glyph glyph-name="afii10070" unicode="&#x435;" horiz-adv-x="635" 
d="M550 181h-301c16 -36 48 -58 82 -63c67 -10 118 22 131 38l65 -91c-61 -56 -115 -80 -205 -80c-131 0 -242 114 -242 255s111 256 242 256c132 0 233 -104 233 -245c0 -24 -1 -47 -5 -70zM322 353c-40 0 -72 -26 -84 -70h172c-9 47 -44 70 -88 70z" />
    <glyph glyph-name="afii10080" unicode="&#x43e;" horiz-adv-x="680" 
d="M340 496c141 0 260 -114 260 -256c0 -141 -119 -255 -260 -255s-260 114 -260 255c0 142 119 256 260 256zM340 138c57 0 103 46 103 102c0 57 -46 103 -103 103s-103 -46 -103 -103c0 -56 46 -102 103 -102z" />
    <glyph glyph-name="afii10082" unicode="&#x440;" horiz-adv-x="685" 
d="M605 240c0 -141 -85 -255 -221 -255c-50 0 -96 15 -135 42v-246h-169v699h169v-46c16 30 85 62 135 62c136 0 221 -114 221 -256zM437 241c0 61 -40 111 -93 111c-52 0 -95 -50 -95 -111c0 -62 43 -111 95 -111c53 0 93 49 93 111z" />
    <glyph glyph-name="afii10083" unicode="&#x441;" horiz-adv-x="620" 
d="M348 136c42 -2 75 16 103 39l89 -113c-47 -48 -120 -77 -192 -77c-150 0 -268 114 -268 255s114 256 268 256c72 0 144 -30 192 -77l-95 -110c-31 23 -60 37 -97 35c-55 -2 -108 -35 -108 -104c0 -63 53 -101 108 -104z" />
    <glyph glyph-name="afii10085" unicode="&#x443;" horiz-adv-x="713" 
d="M449 480h184s-88 -238 -126 -341c-35 -96 -108 -353 -286 -367c-83 -7 -141 41 -141 41l53 126c69 -38 121 12 153 95l-197 446h187l91 -281z" />
    <glyph glyph-name="afii10087" unicode="&#x445;" horiz-adv-x="679" 
d="M599 480l-143 -241l143 -239h-176l-82 137l-80 -137h-181l147 243l-147 237h189l73 -134l68 134h189z" />
    <glyph glyph-name="afii10066" unicode="&#x431;" horiz-adv-x="678" 
d="M597 273c3 -126 -55 -287 -262 -288s-265 182 -253 403c15 272 148 352 277 376c75 15 126 18 158 20l17 -134c-39 -1 -116 -16 -161 -31c-107 -36 -122 -114 -124 -185c0 0 50 61 150 62c119 0 196 -102 198 -223zM325 150c51 0 82 39 82 92c0 56 -24 98 -79 97
c-27 0 -57 -12 -79 -29v-63c-1 -61 39 -97 76 -97z" />
    <glyph glyph-name="afii10067" unicode="&#x432;" horiz-adv-x="600" 
d="M445 256c56 -22 75 -70 75 -113c0 -84 -60 -143 -186 -143h-254v480h246c103 0 164 -53 164 -132c0 -28 -11 -67 -45 -92zM248 367v-62h62c27 0 40 14 40 31s-13 31 -40 31h-62zM322 114c30 0 45 16 45 36c0 19 -15 35 -45 35h-74v-71h74z" />
    <glyph glyph-name="afii10068" unicode="&#x433;" horiz-adv-x="538" 
d="M458 480v-162h-210v-318h-168v480h378z" />
    <glyph glyph-name="afii10069" unicode="&#x434;" horiz-adv-x="762" 
d="M610 162h72v-274h-169v112h-263v-112h-170v274h66c8 15 17 32 23 51c21 65 25 267 25 267h416v-318zM324 162h117v156h-90c-4 -40 -8 -79 -14 -110c-3 -18 -8 -33 -13 -46z" />
    <glyph glyph-name="afii10071" unicode="&#x451;" horiz-adv-x="635" 
d="M314 644c0 -42 -34 -76 -76 -76s-76 34 -76 76s34 76 76 76s76 -34 76 -76zM503 644c0 -42 -34 -76 -76 -76s-76 34 -76 76s34 76 76 76s76 -34 76 -76zM550 181h-301c16 -36 48 -58 82 -63c67 -10 118 22 131 38l65 -91c-61 -56 -115 -80 -205 -80
c-131 0 -242 114 -242 255s111 256 242 256c132 0 233 -104 233 -245c0 -24 -1 -47 -5 -70zM322 353c-40 0 -72 -26 -84 -70h172c-9 47 -44 70 -88 70z" />
    <glyph glyph-name="afii10072" unicode="&#x436;" horiz-adv-x="963" 
d="M883 0h-183l-134 215v-215h-168v215l-134 -215h-184l158 247l-139 233h184l115 -204v204h168v-204l115 204h183l-138 -233z" />
    <glyph glyph-name="afii10073" unicode="&#x437;" horiz-adv-x="564" 
d="M403 256c59 -22 81 -71 81 -115c0 -85 -66 -156 -213 -156c-108 0 -191 64 -191 64l51 104s37 -42 114 -42c58 0 86 16 86 42c0 28 -17 37 -62 37h-77v116h61c38 0 54 13 54 34c0 24 -21 34 -55 36c-71 4 -112 -37 -112 -37l-44 98s68 59 168 59c118 0 193 -56 191 -137
c-1 -31 -15 -71 -52 -103z" />
    <glyph glyph-name="afii10074" unicode="&#x438;" horiz-adv-x="630" 
d="M403 480h147v-480h-168v215l-155 -215h-147v480h168v-215z" />
    <glyph glyph-name="afii10075" unicode="&#x439;" horiz-adv-x="630" 
d="M315 677c36 0 63 29 63 65h111c0 -95 -79 -174 -174 -174s-174 79 -174 174h111c0 -36 27 -65 63 -65zM403 480h147v-480h-168v215l-155 -215h-147v480h168v-215z" />
    <glyph glyph-name="afii10076" unicode="&#x43a;" horiz-adv-x="646" 
d="M566 0h-183l-134 215v-215h-169v480h169v-204l115 204h183l-139 -233z" />
    <glyph glyph-name="afii10077" unicode="&#x43b;" horiz-adv-x="680" 
d="M201 480h399v-480h-168v318h-90c-1 -38 -3 -76 -5 -105c-10 -162 -46 -228 -129 -228c-80 0 -128 31 -128 31l39 119c41 -14 64 -8 71 88c4 50 11 257 11 257z" />
    <glyph glyph-name="afii10078" unicode="&#x43c;" horiz-adv-x="786" 
d="M559 480h147v-480h-168v243l-116 -145h-58l-115 145v-243h-169v480h147l166 -206z" />
    <glyph glyph-name="afii10079" unicode="&#x43d;" horiz-adv-x="643" 
d="M395 480h168v-480h-168v159h-147v-159h-168v480h168v-159h147v159z" />
    <glyph glyph-name="afii10084" unicode="&#x442;" horiz-adv-x="600" 
d="M520 480v-162h-136v-318h-168v318h-136v162h440z" />
    <glyph glyph-name="afii10081" unicode="&#x43f;" horiz-adv-x="644" 
d="M80 480h484v-480h-168v318h-147v-318h-169v480z" />
    <glyph glyph-name="afii10086" unicode="&#x444;" horiz-adv-x="850" 
d="M770 225c0 -125 -95 -231 -246 -262v-182h-191v181c-155 29 -253 136 -253 263s99 233 253 263v190h191v-192c150 -31 246 -136 246 -261zM245 227c0 -52 34 -96 88 -114v228c-56 -18 -88 -62 -88 -114zM524 115c50 20 81 62 81 112c0 49 -29 92 -81 111v-223z" />
    <glyph glyph-name="afii10088" unicode="&#x446;" horiz-adv-x="717" 
d="M564 162h73v-274h-170v112h-387v480h169v-318h147v318h168v-318z" />
    <glyph glyph-name="afii10089" unicode="&#x447;" horiz-adv-x="637" 
d="M388 480h169v-480h-169v157c-25 -16 -72 -34 -112 -35c-167 -5 -196 91 -196 197v161h168v-140c0 -45 12 -82 67 -82c41 0 55 10 73 24v198z" />
    <glyph glyph-name="afii10090" unicode="&#x448;" horiz-adv-x="874" 
d="M626 480h168v-480h-714v480h169v-318h104v318h168v-318h105v318z" />
    <glyph glyph-name="afii10091" unicode="&#x449;" horiz-adv-x="946" 
d="M794 162h72v-274h-179v112h-607v480h168v-318h104v318h169v-318h104v318h169v-318z" />
    <glyph glyph-name="afii10092" unicode="&#x44a;" horiz-adv-x="741" 
d="M471 354c120 0 190 -81 190 -177c0 -95 -70 -177 -190 -177h-254v328h-137v152h306v-126h85zM446 136c39 0 51 20 51 41s-12 41 -51 41h-60v-82h60z" />
    <glyph glyph-name="afii10093" unicode="&#x44b;" horiz-adv-x="827" 
d="M747 480v-480h-168v480h168zM334 354c120 0 190 -81 190 -177c0 -95 -70 -177 -190 -177h-254v480h169v-126h85zM309 136c39 0 51 20 51 41s-12 41 -51 41h-60v-82h60z" />
    <glyph glyph-name="afii10094" unicode="&#x44c;" horiz-adv-x="603" 
d="M333 354c120 0 190 -81 190 -177c0 -95 -70 -177 -190 -177h-253v480h168v-126h85zM308 136c39 0 51 20 51 41s-12 41 -51 41h-60v-82h60z" />
    <glyph glyph-name="afii10095" unicode="&#x44d;" horiz-adv-x="620" 
d="M272 496c155 0 268 -114 268 -256c0 -141 -117 -255 -268 -255c-72 0 -144 30 -192 77l89 114c28 -24 61 -42 103 -40c37 2 74 20 94 52h-152v105h153c-19 33 -57 50 -95 52c-37 1 -66 -13 -96 -35l-96 109c48 48 120 77 192 77z" />
    <glyph glyph-name="afii10096" unicode="&#x44e;" horiz-adv-x="906" 
d="M566 496c141 0 260 -114 260 -256c0 -141 -119 -255 -260 -255c-113 0 -211 73 -246 174h-72v-159h-168v480h168v-159h72c35 102 133 175 246 175zM566 138c57 0 103 46 103 102c0 57 -46 103 -103 103c-56 0 -102 -46 -102 -103c0 -56 46 -102 102 -102z" />
    <glyph glyph-name="afii10097" unicode="&#x44f;" horiz-adv-x="619" 
d="M286 480h253v-480h-168v148h-34l-74 -148h-183l95 174c-51 29 -79 80 -79 140c0 95 70 166 190 166zM371 273v82h-54c-39 0 -57 -20 -57 -41s18 -41 57 -41h54z" />
    <glyph glyph-name="space" unicode=" " horiz-adv-x="359" 
 />
    <glyph glyph-name="one" unicode="1" horiz-adv-x="488" 
d="M238 700h170v-700h-192v511l-136 -54v179z" />
    <glyph glyph-name="two" unicode="2" horiz-adv-x="638" 
d="M355 162h203v-162h-446v141s198 188 251 298c48 102 -79 182 -141 43l-142 80c36 75 115 154 249 154c210 0 264 -194 184 -345c-61 -119 -158 -209 -158 -209z" />
    <glyph glyph-name="three" unicode="3" horiz-adv-x="685" 
d="M445 405c130 -24 160 -120 160 -190c0 -122 -87 -230 -268 -230c-155 0 -257 92 -257 92l72 124s55 -60 165 -60c79 0 114 37 115 82c1 44 -23 70 -77 76c-35 4 -70 -5 -70 -5l-32 103l110 141h-239v162h441v-140z" />
    <glyph glyph-name="four" unicode="4" horiz-adv-x="708" 
d="M628 271v-162h-67v-109h-191v109h-290v162l209 429h182l-195 -429h94v104h191v-104h67z" />
    <glyph glyph-name="five" unicode="5" horiz-adv-x="686" 
d="M455 439c127 -27 154 -129 150 -214c-5 -125 -93 -240 -274 -240c-154 0 -251 92 -251 92l73 124s48 -60 159 -60c78 0 111 36 114 86c7 89 -109 129 -225 82l-58 76l26 315h390v-162h-231l-7 -98c35 9 94 8 134 -1z" />
    <glyph glyph-name="six" unicode="6" horiz-adv-x="677" 
d="M380 484c120 -20 217 -123 217 -248c0 -139 -120 -251 -259 -251s-258 112 -258 251c0 49 21 102 49 153c14 27 180 311 180 311h195zM338 150c48 0 87 38 87 86s-39 86 -87 86s-86 -38 -86 -86s38 -86 86 -86z" />
    <glyph glyph-name="seven" unicode="7" horiz-adv-x="616" 
d="M80 700h456v-140l-221 -560h-192l211 538h-254v162z" />
    <glyph glyph-name="eight" unicode="8" horiz-adv-x="674" 
d="M497 377c64 -33 97 -102 97 -163c0 -141 -95 -229 -257 -229c-161 0 -257 88 -257 229c0 61 33 130 97 163c-40 31 -63 97 -63 139c0 119 96 200 223 200s223 -81 223 -200c0 -42 -23 -108 -63 -139zM337 584c-41 0 -74 -33 -74 -74s33 -74 74 -74s74 33 74 74
s-33 74 -74 74zM337 133c46 0 83 37 83 83s-37 83 -83 83s-83 -37 -83 -83s37 -83 83 -83z" />
    <glyph glyph-name="nine" unicode="9" horiz-adv-x="677" 
d="M297 217c-121 19 -217 123 -217 248c0 138 119 251 258 251s259 -113 259 -251c0 -49 -21 -102 -49 -154c-15 -26 -180 -311 -180 -311h-196zM338 551c-48 0 -86 -39 -86 -86c0 -48 38 -87 86 -87s87 39 87 87c0 47 -39 86 -87 86z" />
    <glyph glyph-name="zero" unicode="0" horiz-adv-x="681" 
d="M340 716c172 0 261 -148 261 -366s-89 -365 -261 -365c-171 0 -260 147 -260 365s89 366 260 366zM340 163c75 0 99 87 99 187c0 101 -24 188 -99 188c-74 0 -98 -87 -98 -188c0 -100 24 -187 98 -187z" />
    <glyph glyph-name="dollar" unicode="$" horiz-adv-x="756" 
d="M324 510c-23 -108 369 -71 351 -323c-9 -130 -99 -183 -192 -200v-136h-168v136c-95 16 -183 59 -235 97l88 145c79 -90 285 -121 301 -44c26 126 -371 59 -337 338c10 82 59 160 183 184v4v138h168v-134v-6c104 -15 156 -52 170 -63l-68 -150c-65 61 -243 96 -261 14z
" />
    <glyph glyph-name="Euro" unicode="&#x20ac;" horiz-adv-x="950" 
d="M632 156c53 0 101 19 143 50l95 -134c-70 -54 -147 -87 -238 -87c-175 0 -316 97 -372 234h-180l64 99h92c-1 11 -1 21 -1 32h-155l64 99h105c45 154 195 267 383 267c91 0 168 -33 238 -88l-95 -133c-42 32 -90 49 -143 49c-80 0 -146 -38 -182 -95h273l-63 -99h-239
c0 -11 1 -21 3 -32h221l-64 -99h-106c38 -38 94 -63 157 -63z" />
    <glyph glyph-name="cent" unicode="&#xa2;" horiz-adv-x="621" 
d="M541 62c-34 -34 -81 -59 -132 -70v-123h-154v132c-103 36 -175 129 -175 239c0 111 70 205 175 241v140h154v-132c51 -11 97 -36 132 -70l-96 -109c-30 22 -59 36 -96 35c-55 -3 -109 -36 -109 -105c0 -63 54 -101 109 -104c42 -2 75 16 103 39z" />
    <glyph glyph-name="sterling" unicode="&#xa3;" horiz-adv-x="775" 
d="M371 265v-103h310v-162h-601v162h100v103h-75v145h75v5c0 200 115 301 265 301c114 0 174 -35 250 -109l-108 -110c-39 40 -70 51 -115 51c-66 0 -101 -44 -101 -127v-11h238v-145h-238z" />
    <glyph glyph-name="currency" unicode="&#xa4;" horiz-adv-x="628" 
d="M499 350c0 -28 -7 -54 -18 -78l67 -68l-88 -88l-68 68c-26 -13 -55 -20 -85 -20c-26 0 -52 6 -76 16l-63 -64l-88 88l59 59c-15 26 -23 56 -23 87c0 32 8 61 23 87l-59 59l88 88l63 -63c24 10 50 16 76 16c30 0 59 -8 85 -20l68 67l88 -88l-67 -67c11 -24 18 -51 18 -79z
M307 289c34 0 62 27 62 61s-28 62 -62 62c-33 0 -61 -28 -61 -62s28 -61 61 -61z" />
    <glyph glyph-name="yen" unicode="&#xa5;" horiz-adv-x="851" 
d="M771 700l-180 -319h103v-125h-173v-35h173v-125h-173v-96h-191v96h-173v125h173v35h-173v125h103l-180 319h215l130 -262l131 262h215z" />
    <glyph glyph-name="ruble" horiz-adv-x="832" 
d="M479 267h-85v-35h166v-144h-166v-88h-192v88h-122v144h122v36h-122v144h122v288h277c169 0 273 -91 273 -225c0 -133 -93 -208 -273 -208zM472 538h-78v-126h78c82 0 107 23 107 63c0 39 -25 63 -107 63z" />
    <glyph glyph-name="period" unicode="." horiz-adv-x="326" 
d="M246 68c0 -46 -38 -83 -83 -83c-46 0 -83 37 -83 83c0 45 37 82 83 82c45 0 83 -37 83 -82z" />
    <glyph glyph-name="comma" unicode="," horiz-adv-x="333" 
d="M253 162l-65 -275h-108l22 275h151z" />
    <glyph glyph-name="colon" unicode=":" horiz-adv-x="326" 
d="M246 68c0 -46 -37 -83 -83 -83s-83 37 -83 83c0 45 37 82 83 82s83 -37 83 -82zM246 431c0 -46 -37 -83 -83 -83s-83 37 -83 83s37 83 83 83s83 -37 83 -83z" />
    <glyph glyph-name="semicolon" unicode=";" horiz-adv-x="333" 
d="M253 162l-65 -275h-108l22 275h151zM249 431c0 -46 -37 -83 -83 -83s-83 37 -83 83s37 83 83 83s83 -37 83 -83z" />
    <glyph glyph-name="exclam" unicode="!" horiz-adv-x="351" 
d="M271 700l-32 -455h-127l-32 455h191zM259 68c0 -46 -38 -83 -83 -83c-46 0 -83 37 -83 83c0 45 37 82 83 82c45 0 83 -37 83 -82z" />
    <glyph glyph-name="question" unicode="?" horiz-adv-x="636" 
d="M413 68c0 45 -37 82 -82 82c-46 0 -83 -37 -83 -82c0 -46 37 -83 83 -83c45 0 82 37 82 83zM519 394c-43 -61 -83 -77 -102 -124c-6 -16 -5 -33 -4 -47h-168c0 20 4 42 7 53c21 75 54 109 106 163c77 82 -73 181 -136 42l-142 80c36 75 115 155 249 155
c211 0 276 -199 190 -322z" />
    <glyph glyph-name="plus" unicode="+" horiz-adv-x="577" 
d="M497 421v-142h-138v-138h-141v138h-138v142h138v138h141v-138h138z" />
    <glyph glyph-name="minus" unicode="&#x2212;" horiz-adv-x="577" 
d="M497 421v-142h-417v142h417z" />
    <glyph glyph-name="divide" unicode="&#xf7;" horiz-adv-x="578" 
d="M498 421v-142h-418v142h418zM372 546c0 -46 -37 -83 -83 -83s-83 37 -83 83s37 83 83 83s83 -37 83 -83zM372 154c0 -46 -37 -83 -83 -83s-83 37 -83 83s37 83 83 83s83 -37 83 -83z" />
    <glyph glyph-name="multiply" unicode="&#xd7;" horiz-adv-x="555" 
d="M475 447l-98 -97l98 -98l-100 -100l-98 98l-97 -98l-100 100l97 98l-97 97l100 100l97 -97l98 97z" />
    <glyph glyph-name="plusminus" unicode="&#xb1;" horiz-adv-x="577" 
d="M497 57v141h-417v-141h417zM497 523v-141h-138v-138h-141v138h-138v141h138v138h141v-138h138z" />
    <glyph glyph-name="at" unicode="@" horiz-adv-x="990" 
d="M909 225c-1 -95 -51 -200 -205 -200c-66 0 -108 51 -108 51c-28 -29 -75 -52 -124 -52c-106 0 -178 86 -178 192c0 107 72 193 178 193c33 0 64 -16 91 -38v24h141v-215c0 -35 26 -46 41 -46c35 0 73 31 77 88c12 171 -120 308 -335 308c-172 0 -316 -144 -316 -308
c0 -165 133 -302 305 -302c88 0 142 19 216 56l36 -74c-86 -48 -182 -63 -254 -63c-233 0 -394 162 -394 384c0 221 172 391 406 391c290 0 427 -173 423 -389zM491 134c36 0 66 37 66 82c0 46 -30 83 -66 83c-37 0 -66 -37 -66 -83c0 -45 29 -82 66 -82z" />
    <glyph glyph-name="quotedbl" unicode="&#x22;" horiz-adv-x="487" 
d="M80 799h153l-19 -254h-116zM254 799h153l-18 -254h-116z" />
    <glyph glyph-name="quotedblright" unicode="&#x201d;" horiz-adv-x="538" 
d="M253 799l-65 -254h-108l22 254h151zM458 799l-65 -254h-108l22 254h151z" />
    <glyph glyph-name="afii61352" unicode="&#x2116;" horiz-adv-x="1285" 
d="M80 700h170l243 -372v372h191v-700h-170l-242 372v-372h-192v700zM1205 162v-162h-396v162h396zM1007 589c108 0 198 -88 198 -195c0 -108 -90 -195 -198 -195c-107 0 -198 87 -198 195c0 107 91 195 198 195zM1007 316c43 0 78 35 78 78s-35 78 -78 78s-78 -35 -78 -78
s35 -78 78 -78z" />
    <glyph glyph-name="quoteright" unicode="&#x2019;" horiz-adv-x="333" 
d="M253 799l-65 -254h-108l22 254h151z" />
    <glyph glyph-name="quotesingle" unicode="'" horiz-adv-x="312" 
d="M80 799h152l-18 -254h-116z" />
    <glyph glyph-name="degree" unicode="&#xb0;" horiz-adv-x="446" 
d="M223 821c78 0 143 -63 143 -140c0 -78 -65 -140 -143 -140c-77 0 -143 62 -143 140c0 77 66 140 143 140zM223 634c26 0 47 21 47 47s-21 47 -47 47s-47 -21 -47 -47s21 -47 47 -47z" />
    <glyph glyph-name="asciicircum" unicode="^" horiz-adv-x="672" 
d="M592 548h-165l-91 166l-91 -166h-165l173 304h166z" />
    <glyph glyph-name="underscore" unicode="_" horiz-adv-x="694" 
d="M614 -24v-141h-534v141h534z" />
    <glyph glyph-name="figuredash" unicode="&#x2012;" horiz-adv-x="660" 
d="M580 421v-142h-500v142h500z" />
    <glyph glyph-name="ampersand" unicode="&#x26;" horiz-adv-x="860" 
d="M780 435v-147h-83c-3 -131 -55 -303 -317 -303c-193 0 -300 101 -300 223c0 63 32 133 116 165c-50 40 -78 107 -78 146c0 116 89 196 239 196c144 0 225 -84 225 -84l-56 -116s-60 61 -160 53c-50 -4 -81 -35 -80 -70c1 -28 23 -63 78 -63h87v-147h-110
c-64 0 -89 -25 -89 -65c0 -38 40 -82 123 -82c241 0 162 294 162 294h243z" />
    <glyph glyph-name="emdash" unicode="&#x2014;" horiz-adv-x="660" 
d="M580 421v-142h-500v142h500z" />
    <glyph glyph-name="endash" unicode="&#x2013;" horiz-adv-x="600" 
d="M520 421v-142h-440v142h440z" />
    <glyph glyph-name="hyphen" unicode="-" horiz-adv-x="577" 
d="M497 421v-142h-417v142h417z" />
    <glyph glyph-name="quotedblleft" unicode="&#x201c;" horiz-adv-x="538" 
d="M285 545l65 254h108l-22 -254h-151zM80 545l65 254h108l-22 -254h-151z" />
    <glyph glyph-name="quoteleft" unicode="&#x2018;" horiz-adv-x="333" 
d="M80 545l65 254h108l-22 -254h-151z" />
    <glyph glyph-name="quotesinglbase" unicode="&#x201a;" horiz-adv-x="333" 
d="M253 141l-65 -254h-108l22 254h151z" />
    <glyph glyph-name="quotedblbase" unicode="&#x201e;" horiz-adv-x="538" 
d="M253 141l-65 -254h-108l22 254h151zM458 141l-65 -254h-108l22 254h151z" />
    <glyph glyph-name="asterisk" unicode="*" horiz-adv-x="572" 
d="M492 743v-107l-129 8l79 -100l-90 -57l-66 115l-65 -115l-91 57l80 100l-130 -8v107l130 -9l-80 101l91 57l65 -116l66 116l90 -57l-79 -101z" />
    <glyph glyph-name="bar" unicode="|" horiz-adv-x="330" 
d="M250 723v-1021h-170v1021h170z" />
    <glyph glyph-name="bracketleft" unicode="[" horiz-adv-x="502" 
d="M422 568h-172v-711h172v-155h-342v1021h342v-155z" />
    <glyph glyph-name="parenleft" unicode="(" horiz-adv-x="474" 
d="M394 760c0 0 -152 -185 -152 -487c0 -301 152 -486 152 -486h-152s-162 185 -162 486c0 302 162 487 162 487h152z" />
    <glyph glyph-name="fraction" unicode="&#x2044;" horiz-adv-x="702" 
d="M622 723l-383 -1021h-159l383 1021h159z" />
    <glyph glyph-name="greater" unicode="&#x3e;" horiz-adv-x="465" 
d="M80 593l305 -172v-167l-305 -172v164l167 91l-167 91v165z" />
    <glyph glyph-name="percent" unicode="%" horiz-adv-x="1044" 
d="M341 0l523 700h-160l-523 -700h160zM260 715c98 0 181 -79 181 -177s-83 -178 -181 -178s-180 80 -180 178s82 177 180 177zM260 479c33 0 60 26 60 59s-27 59 -60 59c-32 0 -59 -26 -59 -59s27 -59 59 -59zM783 340c98 0 181 -80 181 -178s-83 -178 -181 -178
s-180 80 -180 178s82 178 180 178zM783 103c33 0 59 26 59 59s-26 59 -59 59s-59 -26 -59 -59s26 -59 59 -59z" />
    <glyph glyph-name="asciitilde" unicode="~" horiz-adv-x="680" 
d="M481 445l119 -51s-20 -151 -150 -151c-50 0 -88 19 -108 27c-21 7 -64 27 -90 27c-46 0 -54 -51 -54 -51l-118 51s20 152 150 152c50 0 90 -20 110 -28c19 -7 66 -27 88 -27c45 0 53 51 53 51z" />
    <glyph glyph-name="approxequal" unicode="&#x2248;" horiz-adv-x="680" 
d="M481 595l119 -52s-20 -151 -150 -151c-50 0 -88 19 -108 27c-21 7 -64 27 -90 27c-46 0 -54 -51 -54 -51l-118 51s20 152 150 152c50 0 90 -20 110 -27c19 -8 66 -27 88 -27c45 0 53 51 53 51zM481 352l119 -51s-20 -152 -150 -152c-50 0 -88 19 -108 27
c-21 7 -64 27 -90 27c-46 0 -54 -51 -54 -51l-118 51s20 152 150 152c50 0 90 -20 110 -27c19 -7 66 -27 88 -27c45 0 53 51 53 51z" />
    <glyph glyph-name="brokenbar" unicode="&#xa6;" horiz-adv-x="284" 
d="M204 872v-377h-124v377h124zM204 325v-377h-124v377h124z" />
    <glyph glyph-name="guillemotright" unicode="&#xbb;" horiz-adv-x="776" 
d="M275 596l146 -241l-147 -241h-194l146 241l-146 241h195zM550 596l146 -241l-147 -241h-194l146 241l-146 241h195z" />
    <glyph glyph-name="guilsinglright" unicode="&#x203a;" horiz-adv-x="501" 
d="M275 596l146 -241l-147 -241h-194l147 241l-147 241h195z" />
    <glyph glyph-name="braceleft" unicode="{" horiz-adv-x="424" 
d="M278 449c0 -66 -28 -102 -70 -102c42 0 70 -37 70 -103v-144s32 -42 44 -42h22v-133h-57c-98 0 -144 71 -144 154v144c0 46 -14 56 -46 56h-17v135h17c32 0 46 10 46 56v144c0 84 46 154 144 154h57v-133h-22c-12 0 -44 -5 -44 -42v-144z" />
    <glyph glyph-name="numbersign" unicode="#" horiz-adv-x="835" 
d="M733 394h-132l-16 -97h127l-21 -119h-125l-29 -178h-117l29 178h-120l-29 -178h-116l28 178h-132l21 119h131l15 97h-124l21 119h123l30 187h117l-30 -187h120l30 187h117l-31 -187h135zM468 297l16 97h-120l-15 -97h119z" />
    <glyph glyph-name="paragraph" unicode="&#xb6;" horiz-adv-x="831" 
d="M332 700h419v-975h-170v813h-79v-813h-170v472c-139 0 -252 112 -252 251s113 252 252 252z" />
    <glyph glyph-name="section" unicode="&#xa7;" horiz-adv-x="694" 
d="M88 270c14 48 56 103 88 132c-97 64 -111 163 -83 247c34 100 130 144 276 134c123 -8 215 -69 215 -69l-54 -128s-63 41 -138 50c-68 9 -125 -1 -131 -58c-6 -58 80 -72 174 -116c170 -78 195 -164 171 -247c-14 -48 -56 -103 -88 -132c97 -64 111 -163 83 -247
c-34 -99 -130 -144 -276 -134c-123 8 -215 69 -215 69l54 128s63 -41 138 -50c68 -9 125 1 131 58c6 58 -80 73 -174 116c-170 78 -195 164 -171 247zM380 141c68 36 129 181 -79 210c-133 -107 -34 -186 79 -210z" />
    <glyph glyph-name="slash" unicode="/" horiz-adv-x="702" 
d="M622 723l-383 -1021h-159l383 1021h159z" />
    <glyph glyph-name="backslash" unicode="\" horiz-adv-x="702" 
d="M463 -298l-383 1021h159l383 -1021h-159z" />
    <glyph glyph-name="parenright" unicode=")" horiz-adv-x="474" 
d="M80 760h152s162 -185 162 -487c0 -301 -162 -486 -162 -486h-152s152 185 152 486c0 302 -152 487 -152 487z" />
    <glyph glyph-name="bracketright" unicode="]" horiz-adv-x="502" 
d="M252 568h-172v155h342v-1021h-342v155h172v711z" />
    <glyph glyph-name="less" unicode="&#x3c;" horiz-adv-x="465" 
d="M80 421l305 172v-165l-167 -91l167 -91v-164l-305 172v167z" />
    <glyph glyph-name="guilsinglleft" unicode="&#x2039;" horiz-adv-x="501" 
d="M80 355l146 241h195l-147 -241l147 -241h-194z" />
    <glyph glyph-name="guillemotleft" unicode="&#xab;" horiz-adv-x="776" 
d="M355 355l146 241h195l-146 -241l146 -241h-194zM80 355l146 241h195l-146 -241l146 -241h-194z" />
    <glyph glyph-name="perthousand" unicode="&#x2030;" horiz-adv-x="1484" 
d="M341 0l523 700h-160l-523 -700h160zM260 715c98 0 181 -79 181 -177s-83 -178 -181 -178s-180 80 -180 178s82 177 180 177zM260 479c33 0 60 26 60 59s-27 59 -60 59c-32 0 -59 -26 -59 -59s27 -59 59 -59zM783 340c98 0 181 -80 181 -178s-83 -178 -181 -178
s-180 80 -180 178s82 178 180 178zM783 103c33 0 59 26 59 59s-26 59 -59 59s-59 -26 -59 -59s26 -59 59 -59zM1223 340c98 0 181 -80 181 -178s-83 -178 -181 -178s-180 80 -180 178s82 178 180 178zM1223 103c33 0 59 26 59 59s-26 59 -59 59s-59 -26 -59 -59
s26 -59 59 -59z" />
    <glyph glyph-name="equal" unicode="=" horiz-adv-x="577" 
d="M497 328v-142h-417v142h417zM497 516v-142h-417v142h417z" />
    <glyph glyph-name="bullet" unicode="&#x2022;" horiz-adv-x="326" 
d="M246 340c0 -46 -37 -83 -83 -83s-83 37 -83 83s37 83 83 83s83 -37 83 -83z" />
    <glyph glyph-name="ellipsis" unicode="&#x2026;" horiz-adv-x="872" 
d="M246 68c0 -46 -38 -83 -83 -83c-46 0 -83 37 -83 83c0 45 37 82 83 82c45 0 83 -37 83 -82zM519 68c0 -46 -38 -83 -83 -83c-46 0 -83 37 -83 83c0 45 37 82 83 82c45 0 83 -37 83 -82zM792 68c0 -46 -38 -83 -83 -83c-46 0 -83 37 -83 83c0 45 37 82 83 82
c45 0 83 -37 83 -82z" />
    <glyph glyph-name="braceright" unicode="}" horiz-adv-x="424" 
d="M146 449v144s-32 42 -44 42h-22v133h57c98 0 144 -70 144 -154v-144c0 -46 14 -56 46 -56h17v-135h-17c-32 0 -46 -10 -46 -56v-144c0 -83 -46 -154 -144 -154h-57v133h22c12 0 44 5 44 42v144c0 66 28 103 70 103c-42 0 -70 36 -70 102z" />
    <glyph glyph-name="grave" unicode="`" horiz-adv-x="405" 
d="M187 581l-107 180h187l58 -180h-138z" />
    <glyph glyph-name="acute" unicode="&#xb4;" horiz-adv-x="406" 
d="M326 761l-108 -180h-138l59 180h187z" />
    <glyph glyph-name="circumflex" unicode="&#x2c6;" horiz-adv-x="547" 
d="M467 581h-131l-63 102l-63 -102h-130l118 180h151z" />
    <glyph glyph-name="dieresis" unicode="&#xa8;" horiz-adv-x="541" 
d="M246 656c0 -46 -37 -83 -83 -83s-83 37 -83 83s37 83 83 83s83 -37 83 -83zM461 656c0 -46 -38 -83 -83 -83c-46 0 -83 37 -83 83s37 83 83 83c45 0 83 -37 83 -83z" />
    <glyph glyph-name="tilde" unicode="&#x2dc;" horiz-adv-x="534" 
d="M369 732l85 -41s-14 -120 -108 -120c-36 0 -63 16 -77 22c-15 6 -46 21 -65 21c-33 0 -39 -40 -39 -40l-85 40s15 120 108 120c36 0 65 -15 79 -21s48 -21 63 -21c33 0 39 40 39 40z" />
    <glyph glyph-name="ring" unicode="&#x2da;" horiz-adv-x="381" 
d="M190 791c60 0 111 -49 111 -109s-51 -108 -111 -108s-110 48 -110 108s50 109 110 109zM190 646c20 0 37 16 37 36s-17 36 -37 36s-36 -16 -36 -36s16 -36 36 -36z" />
    <glyph glyph-name="macron" unicode="&#xaf;" horiz-adv-x="563" 
d="M483 707v-126h-403v126h403z" />
    <glyph glyph-name="caron" unicode="&#x2c7;" horiz-adv-x="546" 
d="M336 771h130l-117 -180h-151l-118 180h130l63 -101z" />
    <glyph glyph-name="breve" unicode="&#x2d8;" horiz-adv-x="508" 
d="M254 682c36 0 63 29 63 65h111c0 -95 -79 -174 -174 -174s-174 79 -174 174h111c0 -36 27 -65 63 -65z" />
    <glyph glyph-name="ogonek" unicode="&#x2db;" horiz-adv-x="358" 
d="M183 0h95s-36 -35 -47 -58c-16 -34 -1 -57 33 -49v-90c-62 -29 -184 -27 -184 73s103 124 103 124z" />
    <glyph glyph-name="dotaccent" unicode="&#x2d9;" horiz-adv-x="325" 
d="M245 656c0 -46 -37 -83 -83 -83c-45 0 -82 37 -82 83s37 83 82 83c46 0 83 -37 83 -83z" />
    <glyph glyph-name="cedilla" unicode="&#xb8;" horiz-adv-x="374" 
d="M229 -37c49 -10 65 -54 64 -86c-2 -48 -42 -97 -112 -97c-59 0 -101 35 -101 35l28 52s19 -23 61 -23c29 0 43 14 44 33c3 35 -42 50 -86 32l-23 29l5 59h71l-3 -36c14 4 36 5 52 2z" />
    <glyph glyph-name="commaaccent" unicode="&#xf6c3;" horiz-adv-x="333" 
d="M253 -76l-65 -197h-108l22 197h151z" />
    <glyph glyph-name="hungarumlaut" unicode="&#x2dd;" horiz-adv-x="629" 
d="M325 761l-107 -180h-138l58 180h187zM549 761l-108 -180h-138l58 180h188z" />
    <glyph glyph-name="AE" unicode="&#xc6;" horiz-adv-x="1097" 
d="M686 162h331v-162h-523v124h-156l-43 -124h-213l265 700h653v-162h-314v-107h283v-162h-283v-107zM395 285h99v284z" />
    <glyph glyph-name="OE" unicode="&#x152;" horiz-adv-x="1058" 
d="M647 162h331v-162h-522c-202 0 -376 148 -376 350s174 350 376 350h505v-162h-314v-107h284v-162h-284v-107zM456 174v352c-106 0 -192 -70 -192 -176s86 -176 192 -176z" />
    <glyph glyph-name="Dcroat" unicode="&#x110;" horiz-adv-x="892" 
d="M423 700c262 0 389 -162 389 -350s-128 -350 -390 -350h-276v279h-66v142h66v279h277zM410 162c160 0 223 84 223 188s-63 188 -223 188h-72v-117h154v-142h-154v-117h72z" />
    <glyph glyph-name="Oslash" unicode="&#xd8;" horiz-adv-x="874" 
d="M685 624c78 -67 129 -165 129 -274c0 -202 -174 -366 -376 -366c-46 0 -91 9 -132 25l-65 -106l-117 64l67 109c-78 67 -129 165 -129 274c0 202 174 365 376 365c46 0 91 -8 132 -24l65 106l117 -64zM246 350c0 -45 16 -86 41 -118l189 306c-13 2 -25 3 -38 3
c-106 0 -192 -85 -192 -191zM438 158c106 0 192 86 192 192c0 44 -16 85 -41 118l-189 -306c12 -2 25 -4 38 -4z" />
    <glyph glyph-name="Thorn" unicode="&#xde;" horiz-adv-x="720" 
d="M367 598c169 0 273 -115 273 -248c0 -134 -104 -249 -273 -249h-95v-101h-192v700h192v-102h95zM360 263c82 0 108 43 108 87s-26 86 -108 86h-88v-173h88z" />
    <glyph glyph-name="germandbls" unicode="&#xdf;" horiz-adv-x="770" 
d="M518 405c130 -25 172 -121 172 -191c0 -122 -99 -230 -280 -230c-36 0 -68 5 -97 13l35 147c13 -2 27 -4 42 -4c75 0 114 38 115 83c1 43 -23 70 -77 75c-35 4 -73 -5 -73 -5l-31 104s106 76 112 136c5 51 -27 90 -83 90c-54 0 -82 -45 -82 -98v-525h-191v549
c0 142 80 236 270 236c223 0 271 -123 271 -198c0 -124 -103 -182 -103 -182z" />
    <glyph glyph-name="Hbar" unicode="&#x126;" horiz-adv-x="888" 
d="M808 619v-125h-56v-494h-191v269h-234v-269h-191v494h-56v125h56v81h191v-81h234v81h191v-81h56zM561 431v63h-234v-63h234z" />
    <glyph glyph-name="Lslash" unicode="&#x141;" horiz-adv-x="740" 
d="M365 162h295v-162h-486v292l-60 -17l-34 120l94 27v278h191v-223l205 58l35 -120l-240 -69v-184z" />
    <glyph glyph-name="Eng" unicode="&#x14a;" horiz-adv-x="764" 
d="M493 701h191v-621c0 -107 -29 -223 -127 -268c-76 -35 -147 -11 -147 -11l6 137c52 -8 84 18 99 63l-244 371v-371h-191v700h170l243 -372v372z" />
    <glyph glyph-name="Tbar" unicode="&#x166;" horiz-adv-x="761" 
d="M681 539h-205v-134h106v-126h-106v-278h-191v278h-106v126h106v134h-205v162h601v-162z" />
    <glyph glyph-name="ae" unicode="&#xe6;" horiz-adv-x="882" 
d="M832 182h-301c16 -36 48 -59 82 -64c67 -10 119 22 132 39l65 -92c-62 -55 -116 -80 -205 -80c-77 0 -146 38 -190 98c-31 -53 -76 -98 -192 -98c-27 0 -155 19 -159 142c-3 104 67 151 136 163c46 7 132 12 150 12c0 21 -11 64 -70 64c-65 0 -124 -27 -148 -40l-45 110
c36 24 120 60 214 60c60 0 120 -12 162 -48c40 30 89 48 142 48c131 0 232 -104 232 -245c0 -24 -1 -46 -5 -69zM288 112c48 0 62 30 62 50v52s-67 3 -96 -18c-36 -25 -24 -84 34 -84zM520 283h172c-9 48 -44 71 -87 71c-41 0 -72 -26 -85 -71z" />
    <glyph glyph-name="oe" unicode="&#x153;" horiz-adv-x="946" 
d="M889 182h-157h-144c16 -36 48 -59 82 -64c67 -10 118 22 131 39l65 -92c-61 -55 -115 -80 -205 -80c-65 0 -125 28 -169 73c-47 -45 -111 -73 -180 -73c-142 0 -260 114 -260 256c0 141 118 255 260 255c69 0 133 -28 180 -73c44 45 104 73 169 73
c132 0 233 -104 233 -245c0 -24 -1 -46 -5 -69zM312 138c56 0 102 46 102 103c0 56 -46 102 -102 102c-57 0 -103 -46 -103 -102c0 -57 46 -103 103 -103zM577 283h172c-9 48 -44 71 -88 71c-40 0 -72 -26 -84 -71z" />
    <glyph glyph-name="eth" unicode="&#xf0;" horiz-adv-x="682" 
d="M482 627c100 -119 127 -262 118 -386c-12 -162 -119 -256 -260 -256s-260 114 -260 256c0 141 119 255 260 255c17 0 34 -2 51 -5c-5 25 -19 54 -39 81l-125 -52l-45 108l78 32c-24 16 -49 29 -74 36l56 100c56 -24 105 -51 146 -82l134 57l45 -108zM340 138
c57 0 103 46 103 103c0 56 -46 102 -103 102s-103 -46 -103 -102c0 -57 46 -103 103 -103z" />
    <glyph glyph-name="dcroat" unicode="&#x111;" horiz-adv-x="739" 
d="M659 647v-117h-54v-530h-169v47c-16 -29 -85 -62 -135 -62c-136 0 -221 115 -221 256s85 256 221 256c50 0 97 -16 135 -43v76h-189v117h189v53h169v-53h54zM341 129c53 0 95 50 95 112c0 61 -42 111 -95 111s-93 -50 -93 -111c0 -62 40 -112 93 -112z" />
    <glyph glyph-name="oslash" unicode="&#xf8;" horiz-adv-x="680" 
d="M509 434c55 -47 91 -116 91 -193c0 -142 -119 -256 -260 -256c-33 0 -64 6 -93 17l-39 -64l-78 43l41 66c-56 47 -91 116 -91 194c0 141 119 255 260 255c32 0 64 -6 93 -17l38 64l78 -43zM237 241c0 -21 6 -40 17 -57l96 159h-10c-57 0 -103 -46 -103 -102zM340 138
c57 0 103 46 103 103c0 20 -6 40 -17 56l-96 -159h10z" />
    <glyph glyph-name="thorn" unicode="&#xfe;" horiz-adv-x="685" 
d="M605 241c0 -142 -86 -256 -221 -256c-50 0 -97 16 -135 43v-247h-169v919h169v-266c16 30 85 62 135 62c135 0 221 -114 221 -255zM437 241c0 62 -40 111 -93 111s-95 -49 -95 -111c0 -61 42 -111 95 -111s93 50 93 111z" />
    <glyph glyph-name="hbar" unicode="&#x127;" horiz-adv-x="703" 
d="M440 496c122 0 183 -70 183 -187v-309h-169v287c0 55 -41 76 -71 76s-78 -19 -79 -73v-290h-169v530h-55v117h55v53h169v-53h189v-117h-189v-96c29 34 83 62 136 62z" />
    <glyph glyph-name="lslash" unicode="&#x142;" horiz-adv-x="609" 
d="M529 349l-141 -40v-309h-168v261l-106 -30l-34 121l140 40v308h168v-260l106 30z" />
    <glyph glyph-name="eng" unicode="&#x14b;" horiz-adv-x="648" 
d="M385 496c122 0 183 -70 183 -187v-223c0 -107 -29 -223 -127 -269c-76 -35 -168 -8 -168 -8l27 135c78 -12 99 52 100 142v201c0 55 -42 76 -71 76c-31 0 -78 -19 -80 -73v-290h-169v480h169v-46c29 34 84 62 136 62z" />
    <glyph glyph-name="tbar" unicode="&#x167;" horiz-adv-x="549" 
d="M431 156l38 -138c-20 -11 -76 -33 -147 -33c-136 0 -168 92 -173 204h-49v101h48v39h-68v151h68v103l169 21v-124h124v-151h-124v-39h80v-101h-74c14 -49 52 -60 108 -33z" />
    <glyph glyph-name="Eth" unicode="&#xd0;" horiz-adv-x="892" 
d="M423 700c262 0 389 -162 389 -350s-128 -350 -390 -350h-276v279h-66v142h66v279h277zM410 162c160 0 223 84 223 188s-63 188 -223 188h-72v-117h154v-142h-154v-117h72z" />
    <glyph glyph-name="longs" unicode="&#x17f;" horiz-adv-x="582" 
d="M463 568c-55 21 -146 33 -146 -78v-490h-169v329h-68v151h68v10c0 132 37 250 217 250c70 0 119 -20 137 -27z" />
    <glyph glyph-name="Aacute" unicode="&#xc1;" horiz-adv-x="898" 
d="M603 0l-43 124h-222l-43 -124h-213l264 700h205l265 -700h-213zM395 286h108l-54 154zM632 961l-108 -180h-138l59 180h187z" />
    <glyph glyph-name="Abreve" unicode="&#x102;" horiz-adv-x="898" 
d="M603 0l-43 124h-222l-43 -124h-213l264 700h205l265 -700h-213zM395 286h108l-54 154zM449 882c36 0 63 29 63 65h111c0 -95 -79 -174 -174 -174s-174 79 -174 174h111c0 -36 27 -65 63 -65z" />
    <glyph glyph-name="Acircumflex" unicode="&#xc2;" horiz-adv-x="898" 
d="M603 0l-43 124h-222l-43 -124h-213l264 700h205l265 -700h-213zM395 286h108l-54 154zM643 781h-131l-63 102l-63 -102h-130l118 180h151z" />
    <glyph glyph-name="Adieresis" unicode="&#xc4;" horiz-adv-x="898" 
d="M603 0l-43 124h-222l-43 -124h-213l264 700h205l265 -700h-213zM395 286h108l-54 154zM425 856c0 -46 -37 -83 -83 -83s-83 37 -83 83s37 83 83 83s83 -37 83 -83zM640 856c0 -46 -38 -83 -83 -83c-46 0 -83 37 -83 83s37 83 83 83c45 0 83 -37 83 -83z" />
    <glyph glyph-name="Cdotaccent" unicode="&#x10a;" horiz-adv-x="795" 
d="M478 156c52 0 100 19 143 50l94 -134c-70 -54 -147 -87 -237 -87c-227 0 -398 163 -398 365s171 366 398 366c90 0 167 -33 237 -88l-94 -133c-43 32 -91 49 -143 49c-120 0 -211 -85 -211 -194c0 -108 91 -194 211 -194zM480 856c0 -46 -37 -83 -83 -83
c-45 0 -82 37 -82 83s37 83 82 83c46 0 83 -37 83 -83z" />
    <glyph glyph-name="Agrave" unicode="&#xc0;" horiz-adv-x="898" 
d="M603 0l-43 124h-222l-43 -124h-213l264 700h205l265 -700h-213zM395 286h108l-54 154zM373 781l-107 180h187l58 -180h-138z" />
    <glyph glyph-name="Amacron" unicode="&#x100;" horiz-adv-x="898" 
d="M603 0l-43 124h-222l-43 -124h-213l264 700h205l265 -700h-213zM395 286h108l-54 154zM651 907v-126h-403v126h403z" />
    <glyph glyph-name="Aogonek" unicode="&#x104;" horiz-adv-x="898" 
d="M603 0l-43 124h-222l-43 -124h-213l264 700h205l265 -700s-36 -35 -47 -58c-16 -34 -1 -57 33 -49v-90c-62 -29 -184 -27 -184 73c0 95 93 122 102 124h-117zM395 286h108l-54 154z" />
    <glyph glyph-name="Aring" unicode="&#xc5;" horiz-adv-x="898" 
d="M603 0l-43 124h-222l-43 -124h-213l264 700h205l265 -700h-213zM395 286h108l-54 154zM449 991c60 0 111 -49 111 -109s-51 -108 -111 -108s-110 48 -110 108s50 109 110 109zM449 846c20 0 37 16 37 36s-17 36 -37 36s-36 -16 -36 -36s16 -36 36 -36z" />
    <glyph glyph-name="Atilde" unicode="&#xc3;" horiz-adv-x="898" 
d="M603 0l-43 124h-222l-43 -124h-213l264 700h205l265 -700h-213zM395 286h108l-54 154zM551 932l85 -41s-14 -120 -108 -120c-36 0 -63 16 -77 22c-15 6 -46 21 -65 21c-33 0 -39 -40 -39 -40l-85 40s15 120 108 120c36 0 65 -15 79 -21s48 -21 63 -21c33 0 39 40 39 40z
" />
    <glyph glyph-name="AEacute" unicode="&#x1fc;" horiz-adv-x="1097" 
d="M686 162h331v-162h-523v124h-156l-43 -124h-213l265 700h653v-162h-314v-107h283v-162h-283v-107zM395 285h99v284zM827 961l-108 -180h-138l59 180h187z" />
    <glyph glyph-name="Cacute" unicode="&#x106;" horiz-adv-x="795" 
d="M478 156c52 0 100 19 143 50l94 -134c-70 -54 -147 -87 -237 -87c-227 0 -398 163 -398 365s171 366 398 366c90 0 167 -33 237 -88l-94 -133c-43 32 -91 49 -143 49c-120 0 -211 -85 -211 -194c0 -108 91 -194 211 -194zM611 961l-108 -180h-138l59 180h187z" />
    <glyph glyph-name="Ccaron" unicode="&#x10c;" horiz-adv-x="795" 
d="M478 156c52 0 100 19 143 50l94 -134c-70 -54 -147 -87 -237 -87c-227 0 -398 163 -398 365s171 366 398 366c90 0 167 -33 237 -88l-94 -133c-43 32 -91 49 -143 49c-120 0 -211 -85 -211 -194c0 -108 91 -194 211 -194zM521 971h130l-117 -180h-151l-118 180h130
l63 -101z" />
    <glyph glyph-name="Ccedilla" unicode="&#xc7;" horiz-adv-x="795" 
d="M549 -37c49 -10 65 -54 64 -86c-2 -48 -42 -97 -112 -97c-59 0 -101 35 -101 35l28 52s19 -23 61 -23c29 0 43 14 44 33c3 35 -42 50 -86 32l-23 29l4 50c-202 21 -348 175 -348 362c0 202 171 366 398 366c90 0 167 -33 237 -88l-94 -133c-43 32 -91 49 -143 49
c-120 0 -211 -85 -211 -194c0 -108 91 -194 211 -194c52 0 100 19 143 50l94 -134c-65 -50 -135 -82 -216 -86l-2 -25c14 4 36 5 52 2z" />
    <glyph glyph-name="Ccircumflex" unicode="&#x108;" horiz-adv-x="795" 
d="M478 156c52 0 100 19 143 50l94 -134c-70 -54 -147 -87 -237 -87c-227 0 -398 163 -398 365s171 366 398 366c90 0 167 -33 237 -88l-94 -133c-43 32 -91 49 -143 49c-120 0 -211 -85 -211 -194c0 -108 91 -194 211 -194zM651 781h-131l-63 102l-63 -102h-130l118 180
h151z" />
    <glyph glyph-name="Dcaron" unicode="&#x10e;" horiz-adv-x="825" 
d="M356 700c262 0 389 -162 389 -350s-128 -350 -389 -350h-276v700h276zM343 162c160 0 224 85 224 188c0 104 -64 188 -224 188h-72v-376h72zM476 971h130l-117 -180h-151l-118 180h130l63 -101z" />
    <glyph glyph-name="Eacute" unicode="&#xc9;" horiz-adv-x="683" 
d="M271 162h332v-162h-523v700h506v-162h-315v-107h284v-162h-284v-107zM525 961l-108 -180h-138l59 180h187z" />
    <glyph glyph-name="Ebreve" unicode="&#x114;" horiz-adv-x="683" 
d="M271 162h332v-162h-523v700h506v-162h-315v-107h284v-162h-284v-107zM342 882c36 0 63 29 63 65h111c0 -95 -79 -174 -174 -174s-174 79 -174 174h111c0 -36 27 -65 63 -65z" />
    <glyph glyph-name="Ecaron" unicode="&#x11a;" horiz-adv-x="683" 
d="M271 162h332v-162h-523v700h506v-162h-315v-107h284v-162h-284v-107zM405 971h130l-117 -180h-151l-118 180h130l63 -101z" />
    <glyph glyph-name="Ecircumflex" unicode="&#xca;" horiz-adv-x="683" 
d="M271 162h332v-162h-523v700h506v-162h-315v-107h284v-162h-284v-107zM535 781h-131l-63 102l-63 -102h-130l118 180h151z" />
    <glyph glyph-name="Edieresis" unicode="&#xcb;" horiz-adv-x="683" 
d="M271 162h332v-162h-523v700h506v-162h-315v-107h284v-162h-284v-107zM317 856c0 -46 -37 -83 -83 -83s-83 37 -83 83s37 83 83 83s83 -37 83 -83zM532 856c0 -46 -38 -83 -83 -83c-46 0 -83 37 -83 83s37 83 83 83c45 0 83 -37 83 -83z" />
    <glyph glyph-name="Edotaccent" unicode="&#x116;" horiz-adv-x="683" 
d="M271 162h332v-162h-523v700h506v-162h-315v-107h284v-162h-284v-107zM424 856c0 -46 -37 -83 -83 -83c-45 0 -82 37 -82 83s37 83 82 83c46 0 83 -37 83 -83z" />
    <glyph glyph-name="Egrave" unicode="&#xc8;" horiz-adv-x="683" 
d="M271 162h332v-162h-523v700h506v-162h-315v-107h284v-162h-284v-107zM286 781l-107 180h187l58 -180h-138z" />
    <glyph glyph-name="Emacron" unicode="&#x112;" horiz-adv-x="683" 
d="M271 162h332v-162h-523v700h506v-162h-315v-107h284v-162h-284v-107zM543 907v-126h-403v126h403z" />
    <glyph glyph-name="Eogonek" unicode="&#x118;" horiz-adv-x="683" 
d="M271 162h332v-162s-36 -35 -47 -58c-16 -34 -1 -57 33 -49v-90c-62 -29 -184 -27 -184 73c0 95 93 122 102 124h-427v700h506v-162h-315v-107h284v-162h-284v-107z" />
    <glyph glyph-name="Gbreve" unicode="&#x11e;" horiz-adv-x="837" 
d="M421 431h336v-359c-70 -54 -189 -87 -280 -87c-227 0 -397 154 -397 365c0 212 181 366 408 366c90 0 167 -33 237 -88l-94 -133c-42 30 -91 51 -143 51c-120 0 -222 -87 -222 -196c0 -108 91 -196 211 -196c34 0 65 5 101 14v101h-157v162zM459 882c36 0 63 29 63 65
h111c0 -95 -79 -174 -174 -174s-174 79 -174 174h111c0 -36 27 -65 63 -65z" />
    <glyph glyph-name="Gcircumflex" unicode="&#x11c;" horiz-adv-x="837" 
d="M421 431h336v-359c-70 -54 -189 -87 -280 -87c-227 0 -397 154 -397 365c0 212 181 366 408 366c90 0 167 -33 237 -88l-94 -133c-42 30 -91 51 -143 51c-120 0 -222 -87 -222 -196c0 -108 91 -196 211 -196c34 0 65 5 101 14v101h-157v162zM652 781h-131l-63 102
l-63 -102h-130l118 180h151z" />
    <glyph glyph-name="Gcommaaccent" unicode="&#x122;" horiz-adv-x="837" 
d="M421 431h336v-359c-70 -54 -189 -87 -280 -87c-227 0 -397 154 -397 365c0 212 181 366 408 366c90 0 167 -33 237 -88l-94 -133c-42 30 -91 51 -143 51c-120 0 -222 -87 -222 -196c0 -108 91 -196 211 -196c34 0 65 5 101 14v101h-157v162zM545 -76l-65 -197h-108
l22 197h151z" />
    <glyph glyph-name="Gdotaccent" unicode="&#x120;" horiz-adv-x="837" 
d="M421 431h336v-359c-70 -54 -189 -87 -280 -87c-227 0 -397 154 -397 365c0 212 181 366 408 366c90 0 167 -33 237 -88l-94 -133c-42 30 -91 51 -143 51c-120 0 -222 -87 -222 -196c0 -108 91 -196 211 -196c34 0 65 5 101 14v101h-157v162zM541 856
c0 -46 -37 -83 -83 -83c-45 0 -82 37 -82 83s37 83 82 83c46 0 83 -37 83 -83z" />
    <glyph glyph-name="Hcircumflex" unicode="&#x124;" horiz-adv-x="777" 
d="M506 700h191v-700h-191v269h-235v-269h-191v700h191v-269h235v269zM582 781h-131l-63 102l-63 -102h-130l118 180h151z" />
    <glyph glyph-name="Iacute" unicode="&#xcd;" horiz-adv-x="349" 
d="M81 700h191v-700h-191v700zM359 961l-108 -180h-138l59 180h187z" />
    <glyph glyph-name="Ibreve" unicode="&#x12c;" horiz-adv-x="359" 
d="M81 700h191v-700h-191v700zM176 882c36 0 63 29 63 65h111c0 -95 -79 -174 -174 -174s-174 79 -174 174h111c0 -36 27 -65 63 -65z" />
    <glyph glyph-name="Icircumflex" unicode="&#xce;" horiz-adv-x="388" 
d="M98 700h191v-700h-191v700zM387 781h-131l-63 102l-63 -102h-130l118 180h151z" />
    <glyph glyph-name="Idieresis" unicode="&#xcf;" horiz-adv-x="388" 
d="M97 700h191v-700h-191v700zM168 856c0 -46 -37 -83 -83 -83s-83 37 -83 83s37 83 83 83s83 -37 83 -83zM383 856c0 -46 -38 -83 -83 -83c-46 0 -83 37 -83 83s37 83 83 83c45 0 83 -37 83 -83z" />
    <glyph glyph-name="Idotaccent" unicode="&#x130;" horiz-adv-x="352" 
d="M81 700h191v-700h-191v700zM259 856c0 -46 -37 -83 -83 -83c-45 0 -82 37 -82 83s37 83 82 83c46 0 83 -37 83 -83z" />
    <glyph glyph-name="Igrave" unicode="&#xcc;" horiz-adv-x="354" 
d="M83 700h191v-700h-191v700zM113 781l-107 180h187l58 -180h-138z" />
    <glyph glyph-name="Imacron" unicode="&#x12a;" horiz-adv-x="403" 
d="M107 700h191v-700h-191v700zM404 907v-126h-403v126h403z" />
    <glyph glyph-name="Iogonek" unicode="&#x12e;" horiz-adv-x="358" 
d="M87 700h191v-700s-36 -35 -47 -58c-16 -34 -1 -57 33 -49v-90c-62 -29 -184 -27 -184 73c0 95 93 122 102 124h-95v700z" />
    <glyph glyph-name="Itilde" unicode="&#x128;" horiz-adv-x="368" 
d="M89 700h191v-700h-191v700zM286 932l85 -41s-14 -120 -108 -120c-36 0 -63 16 -77 22c-15 6 -46 21 -65 21c-33 0 -39 -40 -39 -40l-85 40s15 120 108 120c36 0 65 -15 79 -21s48 -21 63 -21c33 0 39 40 39 40z" />
    <glyph glyph-name="IJ" unicode="&#x132;" horiz-adv-x="907" 
d="M81 700h191v-700h-191v700zM636 700h191v-414c0 -200 -115 -301 -264 -301c-115 0 -175 35 -251 109l108 110c40 -40 70 -51 115 -51c66 0 101 43 101 127v420z" />
    <glyph glyph-name="Jcircumflex" unicode="&#x134;" horiz-adv-x="678" 
d="M404 700h191v-414c0 -200 -115 -301 -264 -301c-115 0 -175 35 -251 109l108 110c40 -40 70 -51 115 -51c66 0 101 43 101 127v420zM598 781h-131l-63 102l-63 -102h-130l118 180h151z" />
    <glyph glyph-name="Kcommaaccent" unicode="&#x136;" horiz-adv-x="767" 
d="M687 0h-223l-193 308v-308h-191v700h191v-292l165 292h223l-202 -339zM460 -76l-65 -197h-108l22 197h151z" />
    <glyph glyph-name="Lacute" unicode="&#x139;" 
d="M272 162h295v-162h-487v700h192v-538zM357 961l-108 -180h-138l59 180h187z" />
    <glyph glyph-name="Lcaron" unicode="&#x13d;" 
d="M272 162h295v-162h-487v700h192v-538zM564 700l-65 -254h-108l22 254h151z" />
    <glyph glyph-name="Lcommaaccent" unicode="&#x13b;" 
d="M272 162h295v-162h-487v700h192v-538zM410 -76l-65 -197h-108l22 197h151z" />
    <glyph glyph-name="Ldot" unicode="&#x13f;" horiz-adv-x="658" 
d="M578 307c0 46 -37 83 -83 83c-45 0 -82 -37 -82 -83s37 -83 82 -83c46 0 83 37 83 83zM272 162h295v-162h-487v700h192v-538z" />
    <glyph glyph-name="Nacute" unicode="&#x143;" horiz-adv-x="765" 
d="M250 700h-170v-700h192v372l243 -372h170v700h-192v-371zM566 961l-108 -180h-138l59 180h187z" />
    <glyph glyph-name="Ncaron" unicode="&#x147;" horiz-adv-x="765" 
d="M250 700h-170v-700h192v372l243 -372h170v700h-192v-371zM466 971h130l-117 -180h-151l-118 180h130l63 -101z" />
    <glyph glyph-name="Ncommaaccent" unicode="&#x145;" horiz-adv-x="765" 
d="M80 700h170l243 -371v371h192v-700h-170l-243 372v-372h-192v700zM469 -76l-65 -197h-108l22 197h151z" />
    <glyph glyph-name="Ntilde" unicode="&#xd1;" horiz-adv-x="765" 
d="M250 700h-170v-700h192v372l243 -372h170v700h-192v-371zM485 932l85 -41s-14 -120 -108 -120c-36 0 -63 16 -77 22c-15 6 -46 21 -65 21c-33 0 -39 -40 -39 -40l-85 40s15 120 108 120c36 0 65 -15 79 -21s48 -21 63 -21c33 0 39 40 39 40z" />
    <glyph glyph-name="Oacute" unicode="&#xd3;" horiz-adv-x="913" 
d="M457 716c202 0 376 -164 376 -366s-174 -365 -376 -365s-377 163 -377 365s175 366 377 366zM457 159c106 0 192 85 192 191s-86 192 -192 192s-192 -86 -192 -192s86 -191 192 -191zM630 961l-108 -180h-138l59 180h187z" />
    <glyph glyph-name="Obreve" unicode="&#x14e;" horiz-adv-x="913" 
d="M457 716c202 0 376 -164 376 -366s-174 -365 -376 -365s-377 163 -377 365s175 366 377 366zM457 159c106 0 192 85 192 191s-86 192 -192 192s-192 -86 -192 -192s86 -191 192 -191zM456 882c36 0 63 29 63 65h111c0 -95 -79 -174 -174 -174s-174 79 -174 174h111
c0 -36 27 -65 63 -65z" />
    <glyph glyph-name="Ocircumflex" unicode="&#xd4;" horiz-adv-x="913" 
d="M457 716c202 0 376 -164 376 -366s-174 -365 -376 -365s-377 163 -377 365s175 366 377 366zM457 159c106 0 192 85 192 191s-86 192 -192 192s-192 -86 -192 -192s86 -191 192 -191zM650 781h-131l-63 102l-63 -102h-130l118 180h151z" />
    <glyph glyph-name="Odieresis" unicode="&#xd6;" horiz-adv-x="913" 
d="M457 716c202 0 376 -164 376 -366s-174 -365 -376 -365s-377 163 -377 365s175 366 377 366zM457 159c106 0 192 85 192 191s-86 192 -192 192s-192 -86 -192 -192s86 -191 192 -191zM432 856c0 -46 -37 -83 -83 -83s-83 37 -83 83s37 83 83 83s83 -37 83 -83zM647 856
c0 -46 -38 -83 -83 -83c-46 0 -83 37 -83 83s37 83 83 83c45 0 83 -37 83 -83z" />
    <glyph glyph-name="Ograve" unicode="&#xd2;" horiz-adv-x="913" 
d="M457 716c202 0 376 -164 376 -366s-174 -365 -376 -365s-377 163 -377 365s175 366 377 366zM457 159c106 0 192 85 192 191s-86 192 -192 192s-192 -86 -192 -192s86 -191 192 -191zM391 781l-107 180h187l58 -180h-138z" />
    <glyph glyph-name="Ohungarumlaut" unicode="&#x150;" horiz-adv-x="913" 
d="M457 716c202 0 376 -164 376 -366s-174 -365 -376 -365s-377 163 -377 365s175 366 377 366zM457 159c106 0 192 85 192 191s-86 192 -192 192s-192 -86 -192 -192s86 -191 192 -191zM527 961l-107 -180h-138l58 180h187zM751 961l-108 -180h-138l58 180h188z" />
    <glyph glyph-name="Omacron" unicode="&#x14c;" horiz-adv-x="913" 
d="M457 716c202 0 376 -164 376 -366s-174 -365 -376 -365s-377 163 -377 365s175 366 377 366zM457 159c106 0 192 85 192 191s-86 192 -192 192s-192 -86 -192 -192s86 -191 192 -191zM658 907v-126h-403v126h403z" />
    <glyph glyph-name="Oslashacute" unicode="&#x1fe;" horiz-adv-x="879" 
d="M684 624c78 -67 129 -165 129 -274c0 -202 -174 -366 -376 -366c-46 0 -91 9 -132 25l-65 -106l-117 64l67 109c-78 67 -129 165 -129 274c0 202 174 365 376 365c46 0 91 -8 132 -24l65 106l117 -64zM245 350c0 -45 16 -86 41 -118l189 306c-13 2 -25 3 -38 3
c-106 0 -192 -85 -192 -191zM437 158c106 0 192 86 192 192c0 44 -16 85 -41 118l-189 -306c12 -2 25 -4 38 -4zM644 961l-108 -180h-138l59 180h187z" />
    <glyph glyph-name="Otilde" unicode="&#xd5;" horiz-adv-x="913" 
d="M457 716c202 0 376 -164 376 -366s-174 -365 -376 -365s-377 163 -377 365s175 366 377 366zM457 159c106 0 192 85 192 191s-86 192 -192 192s-192 -86 -192 -192s86 -191 192 -191zM558 932l85 -41s-14 -120 -108 -120c-36 0 -63 16 -77 22c-15 6 -46 21 -65 21
c-33 0 -39 -40 -39 -40l-85 40s15 120 108 120c36 0 65 -15 79 -21s48 -21 63 -21c33 0 39 40 39 40z" />
    <glyph glyph-name="Racute" unicode="&#x154;" horiz-adv-x="761" 
d="M471 0l-130 225h-70v-225h-191v700h287c169 0 274 -104 274 -237c0 -84 -41 -156 -113 -198l153 -265h-210zM271 538v-151h89c82 0 108 31 108 76c0 44 -26 75 -108 75h-89zM534 961l-108 -180h-138l59 180h187z" />
    <glyph glyph-name="Rcaron" unicode="&#x158;" horiz-adv-x="761" 
d="M471 0l-130 225h-70v-225h-191v700h287c169 0 274 -104 274 -237c0 -84 -41 -156 -113 -198l153 -265h-210zM271 538v-151h89c82 0 108 31 108 76c0 44 -26 75 -108 75h-89zM404 971h130l-117 -180h-151l-118 180h130l63 -101z" />
    <glyph glyph-name="Rcommaaccent" unicode="&#x156;" horiz-adv-x="761" 
d="M471 0l-130 225h-70v-225h-191v700h287c169 0 274 -104 274 -237c0 -84 -41 -156 -113 -198l153 -265h-210zM271 538v-151h89c82 0 108 31 108 76c0 44 -26 75 -108 75h-89zM467 -76l-65 -197h-108l22 197h151z" />
    <glyph glyph-name="Sacute" unicode="&#x15a;" horiz-adv-x="757" 
d="M325 512c-23 -108 369 -71 351 -323c-15 -198 -214 -216 -329 -204c-107 11 -209 58 -267 101l88 145c79 -90 285 -121 301 -44c27 126 -371 59 -337 338c13 104 89 203 303 191c136 -8 203 -56 218 -68l-68 -150c-64 61 -243 96 -260 14zM573 961l-108 -180h-138l59 180
h187z" />
    <glyph glyph-name="Scaron" unicode="&#x160;" horiz-adv-x="757" 
d="M325 512c-23 -108 369 -71 351 -323c-15 -198 -214 -216 -329 -204c-107 11 -209 58 -267 101l88 145c79 -90 285 -121 301 -44c27 126 -371 59 -337 338c13 104 89 203 303 191c136 -8 203 -56 218 -68l-68 -150c-64 61 -243 96 -260 14zM473 971h130l-117 -180h-151
l-118 180h130l63 -101z" />
    <glyph glyph-name="Scircumflex" unicode="&#x15c;" horiz-adv-x="757" 
d="M325 512c-23 -108 369 -71 351 -323c-15 -198 -214 -216 -329 -204c-107 11 -209 58 -267 101l88 145c79 -90 285 -121 301 -44c27 126 -371 59 -337 338c13 104 89 203 303 191c136 -8 203 -56 218 -68l-68 -150c-64 61 -243 96 -260 14zM613 781h-131l-63 102l-63 -102
h-130l118 180h151z" />
    <glyph glyph-name="Scedilla" unicode="&#x15e;" horiz-adv-x="757" 
d="M508 -37c49 -10 65 -54 64 -86c-2 -48 -42 -97 -112 -97c-59 0 -101 35 -101 35l28 52s19 -23 61 -23c29 0 43 14 44 33c3 35 -42 50 -86 32l-23 29l4 45c-14 0 -28 1 -40 2c-107 11 -209 58 -267 101l88 145c79 -90 285 -121 301 -44c27 126 -371 59 -337 338
c13 104 89 203 303 191c136 -8 203 -56 218 -68l-68 -150c-64 61 -243 96 -260 14c-23 -108 369 -71 351 -323c-11 -143 -117 -191 -218 -203l-2 -25c14 4 36 5 52 2z" />
    <glyph glyph-name="Scommaaccent" unicode="&#x218;" horiz-adv-x="757" 
d="M325 512c-23 -108 369 -71 351 -323c-15 -198 -214 -216 -329 -204c-107 11 -209 58 -267 101l88 145c79 -90 285 -121 301 -44c27 126 -371 59 -337 338c13 104 89 203 303 191c136 -8 203 -56 218 -68l-68 -150c-64 61 -243 96 -260 14zM471 -76l-65 -197h-108l22 197
h151z" />
    <glyph glyph-name="Tcaron" unicode="&#x164;" horiz-adv-x="761" 
d="M681 700v-162h-205v-538h-191v538h-205v162h601zM444 971h130l-117 -180h-151l-118 180h130l63 -101z" />
    <glyph glyph-name="Tcommaaccent" unicode="&#x162;" horiz-adv-x="761" 
d="M681 700v-162h-205v-538h-191v538h-205v162h601zM457 -76l-65 -197h-108l22 197h151z" />
    <glyph glyph-name="Uacute" unicode="&#xda;" horiz-adv-x="777" 
d="M505 700h192v-414c0 -201 -140 -301 -309 -301s-308 100 -308 301v414h191v-420s52 -127 117 -127s117 43 117 127v420zM562 961l-108 -180h-138l59 180h187z" />
    <glyph glyph-name="Ubreve" unicode="&#x16c;" horiz-adv-x="777" 
d="M505 700h192v-414c0 -201 -140 -301 -309 -301s-308 100 -308 301v414h191v-420s52 -127 117 -127s117 43 117 127v420zM389 882c36 0 63 29 63 65h111c0 -95 -79 -174 -174 -174s-174 79 -174 174h111c0 -36 27 -65 63 -65z" />
    <glyph glyph-name="Ucircumflex" unicode="&#xdb;" horiz-adv-x="777" 
d="M505 700h192v-414c0 -201 -140 -301 -309 -301s-308 100 -308 301v414h191v-420s52 -127 117 -127s117 43 117 127v420zM582 781h-131l-63 102l-63 -102h-130l118 180h151z" />
    <glyph glyph-name="Udieresis" unicode="&#xdc;" horiz-adv-x="777" 
d="M505 700h192v-414c0 -201 -140 -301 -309 -301s-308 100 -308 301v414h191v-420s52 -127 117 -127s117 43 117 127v420zM364 856c0 -46 -37 -83 -83 -83s-83 37 -83 83s37 83 83 83s83 -37 83 -83zM579 856c0 -46 -38 -83 -83 -83c-46 0 -83 37 -83 83s37 83 83 83
c45 0 83 -37 83 -83z" />
    <glyph glyph-name="Ugrave" unicode="&#xd9;" horiz-adv-x="777" 
d="M505 700h192v-414c0 -201 -140 -301 -309 -301s-308 100 -308 301v414h191v-420s52 -127 117 -127s117 43 117 127v420zM320 781l-107 180h187l58 -180h-138z" />
    <glyph glyph-name="Uhungarumlaut" unicode="&#x170;" horiz-adv-x="777" 
d="M505 700h192v-414c0 -201 -140 -301 -309 -301s-308 100 -308 301v414h191v-420s52 -127 117 -127s117 43 117 127v420zM459 961l-107 -180h-138l58 180h187zM683 961l-108 -180h-138l58 180h188z" />
    <glyph glyph-name="Umacron" unicode="&#x16a;" horiz-adv-x="777" 
d="M505 700h192v-414c0 -201 -140 -301 -309 -301s-308 100 -308 301v414h191v-420s52 -127 117 -127s117 43 117 127v420zM590 907v-126h-403v126h403z" />
    <glyph glyph-name="Uogonek" unicode="&#x172;" horiz-adv-x="777" 
d="M505 700h192v-414c0 -173 -103 -271 -239 -295c-11 -11 -30 -32 -38 -49c-16 -34 -1 -57 33 -49v-90c-62 -29 -184 -27 -184 73c0 64 41 96 71 112c-147 17 -260 116 -260 298v414h191v-420c0 -84 52 -127 117 -127s117 43 117 127v420z" />
    <glyph glyph-name="Uring" unicode="&#x16e;" horiz-adv-x="777" 
d="M505 700h192v-414c0 -201 -140 -301 -309 -301s-308 100 -308 301v414h191v-420s52 -127 117 -127s117 43 117 127v420zM388 991c60 0 111 -49 111 -109s-51 -108 -111 -108s-110 48 -110 108s50 109 110 109zM388 846c20 0 37 16 37 36s-17 36 -37 36s-36 -16 -36 -36
s16 -36 36 -36z" />
    <glyph glyph-name="Utilde" unicode="&#x168;" horiz-adv-x="777" 
d="M505 700h192v-414c0 -201 -140 -301 -309 -301s-308 100 -308 301v414h191v-420s52 -127 117 -127s117 43 117 127v420zM491 932l85 -41s-14 -120 -108 -120c-36 0 -63 16 -77 22c-15 6 -46 21 -65 21c-33 0 -39 -40 -39 -40l-85 40s15 120 108 120c36 0 65 -15 79 -21
s48 -21 63 -21c33 0 39 40 39 40z" />
    <glyph glyph-name="Wacute" unicode="&#x1e82;" horiz-adv-x="1351" 
d="M1046 700h225l-269 -700h-209l-118 364l-117 -364h-210l-268 700h225l140 -431l124 431h213l124 -431zM858 961l-108 -180h-138l59 180h187z" />
    <glyph glyph-name="Wcircumflex" unicode="&#x174;" horiz-adv-x="1351" 
d="M1046 700h225l-269 -700h-209l-118 364l-117 -364h-210l-268 700h225l140 -431l124 431h213l124 -431zM869 781h-131l-63 102l-63 -102h-130l118 180h151z" />
    <glyph glyph-name="Wdieresis" unicode="&#x1e84;" horiz-adv-x="1351" 
d="M1046 700h225l-269 -700h-209l-118 364l-117 -364h-210l-268 700h225l140 -431l124 431h213l124 -431zM651 856c0 -46 -37 -83 -83 -83s-83 37 -83 83s37 83 83 83s83 -37 83 -83zM866 856c0 -46 -38 -83 -83 -83c-46 0 -83 37 -83 83s37 83 83 83c45 0 83 -37 83 -83z
" />
    <glyph glyph-name="Wgrave" unicode="&#x1e80;" horiz-adv-x="1351" 
d="M1046 700h225l-269 -700h-209l-118 364l-117 -364h-210l-268 700h225l140 -431l124 431h213l124 -431zM600 781l-107 180h187l58 -180h-138z" />
    <glyph glyph-name="Yacute" unicode="&#xdd;" horiz-adv-x="851" 
d="M556 700h215l-250 -444v-256h-191v256l-250 444h215l130 -262zM609 961l-108 -180h-138l59 180h187z" />
    <glyph glyph-name="Ycircumflex" unicode="&#x176;" horiz-adv-x="851" 
d="M556 700h215l-250 -444v-256h-191v256l-250 444h215l130 -262zM619 781h-131l-63 102l-63 -102h-130l118 180h151z" />
    <glyph glyph-name="Ydieresis" unicode="&#x178;" horiz-adv-x="851" 
d="M556 700h215l-250 -444v-256h-191v256l-250 444h215l130 -262zM401 856c0 -46 -37 -83 -83 -83s-83 37 -83 83s37 83 83 83s83 -37 83 -83zM616 856c0 -46 -38 -83 -83 -83c-46 0 -83 37 -83 83s37 83 83 83c45 0 83 -37 83 -83z" />
    <glyph glyph-name="Ygrave" unicode="&#x1ef2;" horiz-adv-x="851" 
d="M556 700h215l-250 -444v-256h-191v256l-250 444h215l130 -262zM360 781l-107 180h187l58 -180h-138z" />
    <glyph glyph-name="Zacute" unicode="&#x179;" horiz-adv-x="674" 
d="M306 162h288v-162h-514v141l282 397h-265v162h489v-142zM530 961l-108 -180h-138l59 180h187z" />
    <glyph glyph-name="Zcaron" unicode="&#x17d;" horiz-adv-x="674" 
d="M306 162h288v-162h-514v141l282 397h-265v162h489v-142zM420 971h130l-117 -180h-151l-118 180h130l63 -101z" />
    <glyph glyph-name="Zdotaccent" unicode="&#x17b;" horiz-adv-x="674" 
d="M306 162h288v-162h-514v141l282 397h-265v162h489v-142zM440 856c0 -46 -37 -83 -83 -83c-45 0 -82 37 -82 83s37 83 82 83c46 0 83 -37 83 -83z" />
    <glyph glyph-name="aacute" unicode="&#xe1;" horiz-adv-x="615" 
d="M318 496c107 0 217 -40 217 -188v-308h-168v47c-30 -40 -79 -62 -141 -62c-28 0 -141 18 -145 141c-3 104 67 151 137 163c45 8 115 12 149 13c0 20 -11 63 -70 63c-65 0 -124 -27 -147 -39l-46 109c36 25 120 61 214 61zM305 111c48 0 62 31 62 51v52s-67 3 -96 -18
c-36 -25 -24 -85 34 -85zM491 761l-108 -180h-138l59 180h187z" />
    <glyph glyph-name="abreve" unicode="&#x103;" horiz-adv-x="615" 
d="M318 496c107 0 217 -40 217 -188v-308h-168v47c-30 -40 -79 -62 -141 -62c-28 0 -141 18 -145 141c-3 104 67 151 137 163c45 8 115 12 149 13c0 20 -11 63 -70 63c-65 0 -124 -27 -147 -39l-46 109c36 25 120 61 214 61zM305 111c48 0 62 31 62 51v52s-67 3 -96 -18
c-36 -25 -24 -85 34 -85zM328 682c36 0 63 29 63 65h111c0 -95 -79 -174 -174 -174s-174 79 -174 174h111c0 -36 27 -65 63 -65z" />
    <glyph glyph-name="acircumflex" unicode="&#xe2;" horiz-adv-x="615" 
d="M318 496c107 0 217 -40 217 -188v-308h-168v47c-30 -40 -79 -62 -141 -62c-28 0 -141 18 -145 141c-3 104 67 151 137 163c45 8 115 12 149 13c0 20 -11 63 -70 63c-65 0 -124 -27 -147 -39l-46 109c36 25 120 61 214 61zM305 111c48 0 62 31 62 51v52s-67 3 -96 -18
c-36 -25 -24 -85 34 -85zM521 581h-131l-63 102l-63 -102h-130l118 180h151z" />
    <glyph glyph-name="adieresis" unicode="&#xe4;" horiz-adv-x="615" 
d="M318 496c107 0 217 -40 217 -188v-308h-168v47c-30 -40 -79 -62 -141 -62c-28 0 -141 18 -145 141c-3 104 67 151 137 163c45 8 115 12 149 13c0 20 -11 63 -70 63c-65 0 -124 -27 -147 -39l-46 109c36 25 120 61 214 61zM305 111c48 0 62 31 62 51v52s-67 3 -96 -18
c-36 -25 -24 -85 34 -85zM313 656c0 -46 -37 -83 -83 -83s-83 37 -83 83s37 83 83 83s83 -37 83 -83zM528 656c0 -46 -38 -83 -83 -83c-46 0 -83 37 -83 83s37 83 83 83c45 0 83 -37 83 -83z" />
    <glyph glyph-name="agrave" unicode="&#xe0;" horiz-adv-x="615" 
d="M318 496c107 0 217 -40 217 -188v-308h-168v47c-30 -40 -79 -62 -141 -62c-28 0 -141 18 -145 141c-3 104 67 151 137 163c45 8 115 12 149 13c0 20 -11 63 -70 63c-65 0 -124 -27 -147 -39l-46 109c36 25 120 61 214 61zM305 111c48 0 62 31 62 51v52s-67 3 -96 -18
c-36 -25 -24 -85 34 -85zM262 581l-107 180h187l58 -180h-138z" />
    <glyph glyph-name="amacron" unicode="&#x101;" horiz-adv-x="615" 
d="M318 496c107 0 217 -40 217 -188v-308h-168v47c-30 -40 -79 -62 -141 -62c-28 0 -141 18 -145 141c-3 104 67 151 137 163c45 8 115 12 149 13c0 20 -11 63 -70 63c-65 0 -124 -27 -147 -39l-46 109c36 25 120 61 214 61zM305 111c48 0 62 31 62 51v52s-67 3 -96 -18
c-36 -25 -24 -85 34 -85zM529 707v-126h-403v126h403z" />
    <glyph glyph-name="aogonek" unicode="&#x105;" horiz-adv-x="615" 
d="M318 496c107 0 217 -40 217 -188v-308s-36 -35 -47 -58c-16 -34 -1 -57 33 -49v-90c-62 -29 -184 -27 -184 73c0 95 93 122 102 124h-72v47c-30 -40 -79 -62 -141 -62c-28 0 -141 18 -145 141c-3 104 67 151 137 163c45 8 115 12 149 13c0 20 -11 63 -70 63
c-65 0 -124 -27 -147 -39l-46 109c36 25 120 61 214 61zM305 111c48 0 62 31 62 51v52s-67 3 -96 -18c-36 -25 -24 -85 34 -85z" />
    <glyph glyph-name="aring" unicode="&#xe5;" horiz-adv-x="615" 
d="M318 496c107 0 217 -40 217 -188v-308h-168v47c-30 -40 -79 -62 -141 -62c-28 0 -141 18 -145 141c-3 104 67 151 137 163c45 8 115 12 149 13c0 20 -11 63 -70 63c-65 0 -124 -27 -147 -39l-46 109c36 25 120 61 214 61zM305 111c48 0 62 31 62 51v52s-67 3 -96 -18
c-36 -25 -24 -85 34 -85zM347 791c60 0 111 -49 111 -109s-51 -108 -111 -108s-110 48 -110 108s50 109 110 109zM347 646c20 0 37 16 37 36s-17 36 -37 36s-36 -16 -36 -36s16 -36 36 -36z" />
    <glyph glyph-name="atilde" unicode="&#xe3;" horiz-adv-x="615" 
d="M318 496c107 0 217 -40 217 -188v-308h-168v47c-30 -40 -79 -62 -141 -62c-28 0 -141 18 -145 141c-3 104 67 151 137 163c45 8 115 12 149 13c0 20 -11 63 -70 63c-65 0 -124 -27 -147 -39l-46 109c36 25 120 61 214 61zM305 111c48 0 62 31 62 51v52s-67 3 -96 -18
c-36 -25 -24 -85 34 -85zM440 732l85 -41s-14 -120 -108 -120c-36 0 -63 16 -77 22c-15 6 -46 21 -65 21c-33 0 -39 -40 -39 -40l-85 40s15 120 108 120c36 0 65 -15 79 -21s48 -21 63 -21c33 0 39 40 39 40z" />
    <glyph glyph-name="aeacute" unicode="&#x1fd;" horiz-adv-x="901" 
d="M841 182h-301c16 -36 48 -59 82 -64c67 -10 119 22 132 39l65 -92c-62 -55 -116 -80 -205 -80c-77 0 -146 38 -190 98c-31 -53 -76 -98 -192 -98c-27 0 -155 19 -159 142c-3 104 67 151 136 163c46 7 132 12 150 12c0 21 -11 64 -70 64c-65 0 -124 -27 -148 -40l-45 110
c36 24 120 60 214 60c60 0 120 -12 162 -48c40 30 89 48 142 48c131 0 232 -104 232 -245c0 -24 -1 -46 -5 -69zM297 112c48 0 62 30 62 50v52s-67 3 -96 -18c-36 -25 -24 -84 34 -84zM529 283h172c-9 48 -44 71 -87 71c-41 0 -72 -26 -85 -71zM652 761l-108 -180h-138
l59 180h187z" />
    <glyph glyph-name="cacute" unicode="&#x107;" horiz-adv-x="620" 
d="M348 136c42 -2 75 16 103 39l89 -113c-47 -48 -120 -77 -192 -77c-150 0 -268 114 -268 255s114 256 268 256c72 0 144 -30 192 -77l-95 -110c-31 23 -60 37 -97 35c-55 -2 -108 -35 -108 -104c0 -63 53 -101 108 -104zM523 761l-108 -180h-138l59 180h187z" />
    <glyph glyph-name="ccaron" unicode="&#x10d;" horiz-adv-x="623" 
d="M348 136c42 -2 75 16 103 39l89 -113c-47 -48 -120 -77 -192 -77c-150 0 -268 114 -268 255s114 256 268 256c72 0 144 -30 192 -77l-95 -110c-31 23 -60 37 -97 35c-55 -2 -108 -35 -108 -104c0 -63 53 -101 108 -104zM413 771h130l-117 -180h-151l-118 180h130l63 -101
z" />
    <glyph glyph-name="ccedilla" unicode="&#xe7;" horiz-adv-x="620" 
d="M432 -37c49 -10 65 -54 64 -86c-2 -48 -42 -97 -112 -97c-59 0 -101 35 -101 35l28 52s19 -23 61 -23c29 0 43 14 44 33c3 35 -42 50 -86 32l-23 29l4 50c-132 16 -231 123 -231 252c0 141 114 256 268 256c72 0 144 -30 192 -77l-95 -110c-31 23 -60 37 -97 35
c-55 -2 -108 -35 -108 -104c0 -63 53 -101 108 -104c42 -2 75 16 103 39l89 -113c-40 -41 -98 -67 -158 -75l-2 -26c14 4 36 5 52 2z" />
    <glyph glyph-name="ccircumflex" unicode="&#x109;" horiz-adv-x="624" 
d="M348 136c42 -2 75 16 103 39l89 -113c-47 -48 -120 -77 -192 -77c-150 0 -268 114 -268 255s114 256 268 256c72 0 144 -30 192 -77l-95 -110c-31 23 -60 37 -97 35c-55 -2 -108 -35 -108 -104c0 -63 53 -101 108 -104zM544 581h-131l-63 102l-63 -102h-130l118 180h151z
" />
    <glyph glyph-name="cdotaccent" unicode="&#x10b;" horiz-adv-x="620" 
d="M348 136c42 -2 75 16 103 39l89 -113c-47 -48 -120 -77 -192 -77c-150 0 -268 114 -268 255s114 256 268 256c72 0 144 -30 192 -77l-95 -110c-31 23 -60 37 -97 35c-55 -2 -108 -35 -108 -104c0 -63 53 -101 108 -104zM433 656c0 -46 -37 -83 -83 -83
c-45 0 -82 37 -82 83s37 83 82 83c46 0 83 -37 83 -83z" />
    <glyph glyph-name="dcaron" unicode="&#x10f;" horiz-adv-x="792" 
d="M80 241c0 141 85 255 221 255c50 0 96 -16 135 -43v247h168v-700h-168v47c-16 -30 -85 -62 -135 -62c-136 0 -221 114 -221 256zM248 240c0 -61 40 -111 93 -111c52 0 95 50 95 111c0 62 -43 111 -95 111c-53 0 -93 -49 -93 -111zM872 700l-65 -254h-108l22 254h151z" />
    <glyph glyph-name="eacute" unicode="&#xe9;" horiz-adv-x="635" 
d="M550 181h-301c16 -36 48 -58 82 -63c67 -10 118 22 131 38l65 -91c-61 -56 -115 -80 -205 -80c-131 0 -242 114 -242 255s111 256 242 256c132 0 233 -104 233 -245c0 -24 -1 -47 -5 -70zM322 353c-40 0 -72 -26 -84 -70h172c-9 47 -44 70 -88 70zM511 761l-108 -180
h-138l59 180h187z" />
    <glyph glyph-name="ebreve" unicode="&#x115;" horiz-adv-x="635" 
d="M550 181h-301c16 -36 48 -58 82 -63c67 -10 118 22 131 38l65 -91c-61 -56 -115 -80 -205 -80c-131 0 -242 114 -242 255s111 256 242 256c132 0 233 -104 233 -245c0 -24 -1 -47 -5 -70zM322 353c-40 0 -72 -26 -84 -70h172c-9 47 -44 70 -88 70zM328 682
c36 0 63 29 63 65h111c0 -95 -79 -174 -174 -174s-174 79 -174 174h111c0 -36 27 -65 63 -65z" />
    <glyph glyph-name="ecaron" unicode="&#x11b;" horiz-adv-x="635" 
d="M550 181h-301c16 -36 48 -58 82 -63c67 -10 118 22 131 38l65 -91c-61 -56 -115 -80 -205 -80c-131 0 -242 114 -242 255s111 256 242 256c132 0 233 -104 233 -245c0 -24 -1 -47 -5 -70zM322 353c-40 0 -72 -26 -84 -70h172c-9 47 -44 70 -88 70zM401 771h130l-117 -180
h-151l-118 180h130l63 -101z" />
    <glyph glyph-name="ecircumflex" unicode="&#xea;" horiz-adv-x="635" 
d="M550 181h-301c16 -36 48 -58 82 -63c67 -10 118 22 131 38l65 -91c-61 -56 -115 -80 -205 -80c-131 0 -242 114 -242 255s111 256 242 256c132 0 233 -104 233 -245c0 -24 -1 -47 -5 -70zM322 353c-40 0 -72 -26 -84 -70h172c-9 47 -44 70 -88 70zM531 581h-131l-63 102
l-63 -102h-130l118 180h151z" />
    <glyph glyph-name="edieresis" unicode="&#xeb;" horiz-adv-x="635" 
d="M550 181h-301c16 -36 48 -58 82 -63c67 -10 118 22 131 38l65 -91c-61 -56 -115 -80 -205 -80c-131 0 -242 114 -242 255s111 256 242 256c132 0 233 -104 233 -245c0 -24 -1 -47 -5 -70zM322 353c-40 0 -72 -26 -84 -70h172c-9 47 -44 70 -88 70zM303 656
c0 -46 -37 -83 -83 -83s-83 37 -83 83s37 83 83 83s83 -37 83 -83zM518 656c0 -46 -38 -83 -83 -83c-46 0 -83 37 -83 83s37 83 83 83c45 0 83 -37 83 -83z" />
    <glyph glyph-name="edotaccent" unicode="&#x117;" horiz-adv-x="635" 
d="M550 181h-301c16 -36 48 -58 82 -63c67 -10 118 22 131 38l65 -91c-61 -56 -115 -80 -205 -80c-131 0 -242 114 -242 255s111 256 242 256c132 0 233 -104 233 -245c0 -24 -1 -47 -5 -70zM322 353c-40 0 -72 -26 -84 -70h172c-9 47 -44 70 -88 70zM410 656
c0 -46 -37 -83 -83 -83c-45 0 -82 37 -82 83s37 83 82 83c46 0 83 -37 83 -83z" />
    <glyph glyph-name="egrave" unicode="&#xe8;" horiz-adv-x="635" 
d="M550 181h-301c16 -36 48 -58 82 -63c67 -10 118 22 131 38l65 -91c-61 -56 -115 -80 -205 -80c-131 0 -242 114 -242 255s111 256 242 256c132 0 233 -104 233 -245c0 -24 -1 -47 -5 -70zM322 353c-40 0 -72 -26 -84 -70h172c-9 47 -44 70 -88 70zM242 581l-107 180h187
l58 -180h-138z" />
    <glyph glyph-name="emacron" unicode="&#x113;" horiz-adv-x="635" 
d="M550 181h-301c16 -36 48 -58 82 -63c67 -10 118 22 131 38l65 -91c-61 -56 -115 -80 -205 -80c-131 0 -242 114 -242 255s111 256 242 256c132 0 233 -104 233 -245c0 -24 -1 -47 -5 -70zM322 353c-40 0 -72 -26 -84 -70h172c-9 47 -44 70 -88 70zM529 707v-126h-403v126
h403z" />
    <glyph glyph-name="eogonek" unicode="&#x119;" horiz-adv-x="635" 
d="M550 181h-301c16 -36 48 -58 82 -63c67 -10 118 22 131 38l65 -91c-46 -42 -87 -66 -142 -75c-12 -12 -30 -32 -37 -48c-16 -34 -1 -57 33 -49v-90c-62 -29 -184 -27 -184 73c0 67 46 100 76 114c-109 24 -193 127 -193 250c0 141 111 256 242 256
c132 0 233 -104 233 -245c0 -24 -1 -47 -5 -70zM322 353c-40 0 -72 -26 -84 -70h172c-9 47 -44 70 -88 70z" />
    <glyph glyph-name="gbreve" unicode="&#x11f;" horiz-adv-x="684" 
d="M604 480v-424c0 -146 -36 -239 -162 -277c-50 -15 -109 -18 -160 -12c-63 7 -130 37 -183 71l52 114c39 -26 82 -46 126 -49c112 -10 154 35 158 84c1 15 1 39 1 40c-39 -27 -85 -43 -136 -43c-135 0 -220 115 -220 256s85 256 220 256c51 0 119 -33 136 -62v46h168z
M340 129c53 0 96 50 96 112c0 61 -43 111 -96 111c-52 0 -92 -50 -92 -111c0 -62 40 -112 92 -112zM362 682c36 0 63 29 63 65h111c0 -95 -79 -174 -174 -174s-174 79 -174 174h111c0 -36 27 -65 63 -65z" />
    <glyph glyph-name="gcircumflex" unicode="&#x11d;" horiz-adv-x="684" 
d="M604 480v-424c0 -146 -36 -239 -162 -277c-50 -15 -109 -18 -160 -12c-63 7 -130 37 -183 71l52 114c39 -26 82 -46 126 -49c112 -10 154 35 158 84c1 15 1 39 1 40c-39 -27 -85 -43 -136 -43c-135 0 -220 115 -220 256s85 256 220 256c51 0 119 -33 136 -62v46h168z
M340 129c53 0 96 50 96 112c0 61 -43 111 -96 111c-52 0 -92 -50 -92 -111c0 -62 40 -112 92 -112zM556 581h-131l-63 102l-63 -102h-130l118 180h151z" />
    <glyph glyph-name="gcommaaccent" unicode="&#x123;" horiz-adv-x="731" 
d="M604 480v-424c0 -146 -36 -239 -162 -277c-50 -15 -109 -18 -160 -12c-63 7 -130 37 -183 71l52 114c39 -26 82 -46 126 -49c112 -10 154 35 158 84c1 15 1 39 1 40c-39 -27 -85 -43 -136 -43c-135 0 -220 115 -220 256s85 256 220 256c51 0 119 -33 136 -62v46h168z
M340 129c53 0 96 50 96 112c0 61 -43 111 -96 111c-52 0 -92 -50 -92 -111c0 -62 40 -112 92 -112zM659 531l65 254h108l-22 -254h-151z" />
    <glyph glyph-name="gdotaccent" unicode="&#x121;" horiz-adv-x="684" 
d="M604 480v-424c0 -146 -36 -239 -162 -277c-50 -15 -109 -18 -160 -12c-63 7 -130 37 -183 71l52 114c39 -26 82 -46 126 -49c112 -10 154 35 158 84c1 15 1 39 1 40c-39 -27 -85 -43 -136 -43c-135 0 -220 115 -220 256s85 256 220 256c51 0 119 -33 136 -62v46h168z
M340 129c53 0 96 50 96 112c0 61 -43 111 -96 111c-52 0 -92 -50 -92 -111c0 -62 40 -112 92 -112zM465 656c0 -46 -37 -83 -83 -83c-45 0 -82 37 -82 83s37 83 82 83c46 0 83 -37 83 -83z" />
    <glyph glyph-name="hcircumflex" unicode="&#x125;" 
d="M384 496c122 0 183 -71 183 -188v-308h-168v287c0 55 -42 76 -71 76c-31 0 -78 -20 -80 -73v-290h-168v700h168v-266c29 33 84 62 136 62zM517 781h-131l-63 102l-63 -102h-130l118 180h151z" />
    <glyph glyph-name="iacute" unicode="&#xed;" horiz-adv-x="324" 
d="M248 0v480h-168v-480h168zM340 761l-108 -180h-138l59 180h187z" />
    <glyph glyph-name="ibreve" unicode="&#x12d;" horiz-adv-x="339" 
d="M253 0v480h-168v-480h168zM171 682c36 0 63 29 63 65h111c0 -95 -79 -174 -174 -174s-174 79 -174 174h111c0 -36 27 -65 63 -65z" />
    <glyph glyph-name="icircumflex" unicode="&#xee;" horiz-adv-x="386" 
d="M278 0v480h-168v-480h168zM388 581h-131l-63 102l-63 -102h-130l118 180h151z" />
    <glyph glyph-name="idieresis" unicode="&#xef;" horiz-adv-x="369" 
d="M269 480v-480h-168v480h168zM161 656c0 -46 -37 -83 -83 -83s-83 37 -83 83s37 83 83 83s83 -37 83 -83zM376 656c0 -46 -38 -83 -83 -83c-46 0 -83 37 -83 83s37 83 83 83c45 0 83 -37 83 -83z" />
    <glyph glyph-name="igrave" unicode="&#xec;" horiz-adv-x="326" 
d="M246 480v-480h-168v480h168zM87 581l-107 180h187l58 -180h-138z" />
    <glyph glyph-name="imacron" unicode="&#x12b;" horiz-adv-x="403" 
d="M285 480v-480h-168v480h168zM403 707v-126h-403v126h403z" />
    <glyph glyph-name="iogonek" unicode="&#x12f;" horiz-adv-x="324" 
d="M76 480h168v-480h-25s-36 -35 -47 -58c-16 -34 -1 -57 33 -49v-90c-62 -29 -184 -27 -184 73c0 95 93 122 102 124h-47v480z" />
    <glyph glyph-name="itilde" unicode="&#x129;" horiz-adv-x="366" 
d="M264 0v480h-168v-480h168zM282 732l85 -41s-14 -120 -108 -120c-36 0 -63 16 -77 22c-15 6 -46 21 -65 21c-33 0 -39 -40 -39 -40l-85 40s15 120 108 120c36 0 65 -15 79 -21s48 -21 63 -21c33 0 39 40 39 40z" />
    <glyph glyph-name="ij" unicode="&#x133;" horiz-adv-x="586" 
d="M164 536c-46 0 -83 37 -83 83s37 83 83 83s83 -37 83 -83s-37 -83 -83 -83zM80 480h168v-480h-168v480zM505 619c0 46 -37 83 -83 83s-83 -37 -83 -83s37 -83 83 -83s83 37 83 83zM338 480h168v-496c0 -148 -62 -195 -162 -195c-17 0 -72 8 -96 20l23 125
c38 -11 67 -1 67 50v184v312z" />
    <glyph glyph-name="dotlessi" unicode="&#x131;" horiz-adv-x="328" 
d="M248 480v-480h-168v480h168z" />
    <glyph glyph-name="jcircumflex" unicode="&#x135;" horiz-adv-x="387" 
d="M107 480h168v-496c0 -148 -62 -195 -162 -195c-17 0 -72 8 -96 20l23 125c38 -11 67 -1 67 50v184v312zM387 581h-131l-63 102l-63 -102h-130l118 180h151z" />
    <glyph glyph-name="kcommaaccent" unicode="&#x137;" horiz-adv-x="646" 
d="M566 0h-184l-134 215v-215h-168v700h168v-424l115 204h184l-139 -233zM399 -76l-65 -197h-108l22 197h151z" />
    <glyph glyph-name="kgreenlandic" unicode="&#x138;" horiz-adv-x="646" 
d="M566 0h-183l-134 215v-215h-169v480h169v-204l115 204h183l-139 -233z" />
    <glyph glyph-name="lacute" unicode="&#x13a;" horiz-adv-x="328" 
d="M80 700h168v-700h-168v700zM346 961l-108 -180h-138l59 180h187z" />
    <glyph glyph-name="lcaron" unicode="&#x13e;" horiz-adv-x="433" 
d="M80 700h168v-700h-168v700zM518 700l-65 -254h-108l22 254h151z" />
    <glyph glyph-name="lcommaaccent" unicode="&#x13c;" horiz-adv-x="328" 
d="M80 700h168v-700h-168v700zM241 -76l-65 -197h-108l22 197h151z" />
    <glyph glyph-name="ldot" unicode="&#x140;" horiz-adv-x="487" 
d="M504 239c0 46 -37 83 -83 83c-45 0 -82 -37 -82 -83s37 -83 82 -83c46 0 83 37 83 83zM80 700h168v-700h-168v700z" />
    <glyph glyph-name="nacute" unicode="&#x144;" horiz-adv-x="648" 
d="M385 496c122 0 183 -70 183 -188v-308h-169l1 287c0 55 -42 76 -72 76s-78 -19 -79 -73v-290h-169v480h169v-46c29 33 83 62 136 62zM507 761l-108 -180h-138l59 180h187z" />
    <glyph glyph-name="napostrophe" unicode="&#x149;" horiz-adv-x="751" 
d="M488 496c122 0 183 -70 183 -188v-308h-169l1 287c0 55 -42 76 -72 76s-78 -19 -79 -73v-290h-169v480h169v-46c29 33 83 62 136 62zM151 630l-65 -197h-108l22 197h151z" />
    <glyph glyph-name="ncaron" unicode="&#x148;" horiz-adv-x="648" 
d="M385 496c122 0 183 -70 183 -188v-308h-169l1 287c0 55 -42 76 -72 76s-78 -19 -79 -73v-290h-169v480h169v-46c29 33 83 62 136 62zM387 771h130l-117 -180h-151l-118 180h130l63 -101z" />
    <glyph glyph-name="ncommaaccent" unicode="&#x146;" horiz-adv-x="648" 
d="M385 496c122 0 183 -70 183 -188v-308h-169l1 287c0 55 -42 76 -72 76s-78 -19 -79 -73v-290h-169v480h169v-46c29 33 83 62 136 62zM400 -76l-65 -197h-108l22 197h151z" />
    <glyph glyph-name="ntilde" unicode="&#xf1;" horiz-adv-x="648" 
d="M385 496c122 0 183 -70 183 -188v-308h-169l1 287c0 55 -42 76 -72 76s-78 -19 -79 -73v-290h-169v480h169v-46c29 33 83 62 136 62zM426 732l85 -41s-14 -120 -108 -120c-36 0 -63 16 -77 22c-15 6 -46 21 -65 21c-33 0 -39 -40 -39 -40l-85 40s15 120 108 120
c36 0 65 -15 79 -21s48 -21 63 -21c33 0 39 40 39 40z" />
    <glyph glyph-name="oacute" unicode="&#xf3;" horiz-adv-x="680" 
d="M340 496c141 0 260 -114 260 -256c0 -141 -119 -255 -260 -255s-260 114 -260 255c0 142 119 256 260 256zM340 138c57 0 103 46 103 102c0 57 -46 103 -103 103s-103 -46 -103 -103c0 -56 46 -102 103 -102zM523 761l-108 -180h-138l59 180h187z" />
    <glyph glyph-name="obreve" unicode="&#x14f;" horiz-adv-x="680" 
d="M340 496c141 0 260 -114 260 -256c0 -141 -119 -255 -260 -255s-260 114 -260 255c0 142 119 256 260 256zM340 138c57 0 103 46 103 102c0 57 -46 103 -103 103s-103 -46 -103 -103c0 -56 46 -102 103 -102zM340 682c36 0 63 29 63 65h111c0 -95 -79 -174 -174 -174
s-174 79 -174 174h111c0 -36 27 -65 63 -65z" />
    <glyph glyph-name="ocircumflex" unicode="&#xf4;" horiz-adv-x="680" 
d="M340 496c141 0 260 -114 260 -256c0 -141 -119 -255 -260 -255s-260 114 -260 255c0 142 119 256 260 256zM340 138c57 0 103 46 103 102c0 57 -46 103 -103 103s-103 -46 -103 -103c0 -56 46 -102 103 -102zM534 581h-131l-63 102l-63 -102h-130l118 180h151z" />
    <glyph glyph-name="odieresis" unicode="&#xf6;" horiz-adv-x="680" 
d="M340 496c141 0 260 -114 260 -256c0 -141 -119 -255 -260 -255s-260 114 -260 255c0 142 119 256 260 256zM340 138c57 0 103 46 103 102c0 57 -46 103 -103 103s-103 -46 -103 -103c0 -56 46 -102 103 -102zM316 656c0 -46 -37 -83 -83 -83s-83 37 -83 83s37 83 83 83
s83 -37 83 -83zM531 656c0 -46 -38 -83 -83 -83c-46 0 -83 37 -83 83s37 83 83 83c45 0 83 -37 83 -83z" />
    <glyph glyph-name="ograve" unicode="&#xf2;" horiz-adv-x="680" 
d="M340 496c141 0 260 -114 260 -256c0 -141 -119 -255 -260 -255s-260 114 -260 255c0 142 119 256 260 256zM340 138c57 0 103 46 103 102c0 57 -46 103 -103 103s-103 -46 -103 -103c0 -56 46 -102 103 -102zM264 581l-107 180h187l58 -180h-138z" />
    <glyph glyph-name="ohungarumlaut" unicode="&#x151;" horiz-adv-x="688" 
d="M340 496c141 0 260 -114 260 -256c0 -141 -119 -255 -260 -255s-260 114 -260 255c0 142 119 256 260 256zM340 138c57 0 103 46 103 102c0 57 -46 103 -103 103s-103 -46 -103 -103c0 -56 46 -102 103 -102zM411 761l-107 -180h-138l58 180h187zM635 761l-108 -180h-138
l58 180h188z" />
    <glyph glyph-name="omacron" unicode="&#x14d;" horiz-adv-x="680" 
d="M340 496c141 0 260 -114 260 -256c0 -141 -119 -255 -260 -255s-260 114 -260 255c0 142 119 256 260 256zM340 138c57 0 103 46 103 102c0 57 -46 103 -103 103s-103 -46 -103 -103c0 -56 46 -102 103 -102zM541 707v-126h-403v126h403z" />
    <glyph glyph-name="oslashacute" unicode="&#x1ff;" horiz-adv-x="627" 
d="M484 434c55 -47 91 -116 91 -193c0 -142 -119 -256 -260 -256c-33 0 -64 6 -93 17l-39 -64l-78 43l41 66c-56 47 -91 116 -91 194c0 141 119 255 260 255c32 0 64 -6 93 -17l38 64l78 -43zM212 241c0 -21 6 -40 17 -57l96 159h-10c-57 0 -103 -46 -103 -102zM315 138
c57 0 103 46 103 103c0 20 -6 40 -17 56l-96 -159h10zM490 761l-108 -180h-138l59 180h187z" />
    <glyph glyph-name="otilde" unicode="&#xf5;" horiz-adv-x="680" 
d="M340 496c141 0 260 -114 260 -256c0 -141 -119 -255 -260 -255s-260 114 -260 255c0 142 119 256 260 256zM340 138c57 0 103 46 103 102c0 57 -46 103 -103 103s-103 -46 -103 -103c0 -56 46 -102 103 -102zM442 732l85 -41s-14 -120 -108 -120c-36 0 -63 16 -77 22
c-15 6 -46 21 -65 21c-33 0 -39 -40 -39 -40l-85 40s15 120 108 120c36 0 65 -15 79 -21s48 -21 63 -21c33 0 39 40 39 40z" />
    <glyph glyph-name="racute" unicode="&#x155;" horiz-adv-x="554" 
d="M387 496c36 0 75 -11 87 -16l-40 -176c-24 10 -51 25 -98 22c-34 -2 -87 -22 -87 -99v-227h-169v480h169v-46c15 21 75 62 138 62zM430 761l-108 -180h-138l59 180h187z" />
    <glyph glyph-name="rcaron" unicode="&#x159;" horiz-adv-x="554" 
d="M387 496c36 0 75 -11 87 -16l-40 -176c-24 10 -51 25 -98 22c-34 -2 -87 -22 -87 -99v-227h-169v480h169v-46c15 21 75 62 138 62zM340 771h130l-117 -180h-151l-118 180h130l63 -101z" />
    <glyph glyph-name="rcommaaccent" unicode="&#x157;" horiz-adv-x="568" 
d="M401 496c36 0 75 -11 87 -16l-40 -176c-24 10 -51 25 -98 22c-34 -2 -87 -22 -87 -99v-227h-169v480h169v-46c15 21 75 62 138 62zM253 -76l-65 -197h-108l22 197h151z" />
    <glyph glyph-name="sacute" unicode="&#x15b;" horiz-adv-x="573" 
d="M277 344c1 -68 216 -36 216 -205c-1 -90 -67 -154 -207 -154c-62 0 -149 25 -206 67l51 111c75 -56 188 -71 193 -30c8 77 -227 37 -217 232c5 86 80 141 219 131c70 -5 147 -33 158 -42l-49 -112c-62 47 -158 44 -158 2zM475 761l-108 -180h-138l59 180h187z" />
    <glyph glyph-name="scaron" unicode="&#x161;" horiz-adv-x="575" 
d="M277 344c1 -68 216 -36 216 -205c-1 -90 -67 -154 -207 -154c-62 0 -149 25 -206 67l51 111c75 -56 188 -71 193 -30c8 77 -227 37 -217 232c5 86 80 141 219 131c70 -5 147 -33 158 -42l-49 -112c-62 47 -158 44 -158 2zM365 771h130l-117 -180h-151l-118 180h130
l63 -101z" />
    <glyph glyph-name="scedilla" unicode="&#x15f;" horiz-adv-x="573" 
d="M364 -37c49 -10 65 -54 64 -86c-2 -48 -42 -97 -112 -97c-59 0 -101 35 -101 35l28 52s19 -23 61 -23c29 0 43 14 44 33c3 35 -42 50 -86 32l-23 29l4 51c-55 8 -118 30 -163 63l51 111c75 -56 188 -71 193 -30c8 77 -227 37 -217 232c5 86 80 141 219 131
c70 -5 147 -33 158 -42l-49 -112c-62 47 -158 44 -158 2c1 -68 216 -36 216 -205c-1 -84 -58 -145 -179 -153l-2 -25c14 4 36 5 52 2z" />
    <glyph glyph-name="scircumflex" unicode="&#x15d;" horiz-adv-x="586" 
d="M277 344c1 -68 216 -36 216 -205c-1 -90 -67 -154 -207 -154c-62 0 -149 25 -206 67l51 111c75 -56 188 -71 193 -30c8 77 -227 37 -217 232c5 86 80 141 219 131c70 -5 147 -33 158 -42l-49 -112c-62 47 -158 44 -158 2zM506 581h-131l-63 102l-63 -102h-130l118 180
h151z" />
    <glyph glyph-name="scommaaccent" unicode="&#x219;" horiz-adv-x="573" 
d="M277 344c1 -68 216 -36 216 -205c-1 -90 -67 -154 -207 -154c-62 0 -149 25 -206 67l51 111c75 -56 188 -71 193 -30c8 77 -227 37 -217 232c5 86 80 141 219 131c70 -5 147 -33 158 -42l-49 -112c-62 47 -158 44 -158 2zM378 -76l-65 -197h-108l22 197h151z" />
    <glyph glyph-name="tcaron" unicode="&#x165;" horiz-adv-x="610" 
d="M431 156l37 -138c-19 -12 -76 -33 -146 -33c-155 0 -175 118 -175 250v94h-67v151h67v103l169 21v-124h124v-151h-124v-90c0 -91 43 -118 115 -83zM675 616l-65 -254h-108l22 254h151z" />
    <glyph glyph-name="tcommaaccent" unicode="&#x163;" horiz-adv-x="548" 
d="M431 156l37 -138c-19 -12 -76 -33 -146 -33c-155 0 -175 118 -175 250v94h-67v151h67v103l169 21v-124h124v-151h-124v-90c0 -91 43 -118 115 -83zM380 -76l-65 -197h-108l22 197h151z" />
    <glyph glyph-name="uacute" unicode="&#xfa;" 
d="M263 -15c-122 0 -183 70 -183 187v308h168v-286c0 -55 42 -76 71 -76c31 0 78 19 80 73v289h168v-480h-168v47c-30 -34 -84 -62 -136 -62zM517 761l-108 -180h-138l59 180h187z" />
    <glyph glyph-name="ubreve" unicode="&#x16d;" 
d="M263 -15c-122 0 -183 70 -183 187v308h168v-286c0 -55 42 -76 71 -76c31 0 78 19 80 73v289h168v-480h-168v47c-30 -34 -84 -62 -136 -62zM324 682c36 0 63 29 63 65h111c0 -95 -79 -174 -174 -174s-174 79 -174 174h111c0 -36 27 -65 63 -65z" />
    <glyph glyph-name="ucircumflex" unicode="&#xfb;" 
d="M263 -15c-122 0 -183 70 -183 187v308h168v-286c0 -55 42 -76 71 -76c31 0 78 19 80 73v289h168v-480h-168v47c-30 -34 -84 -62 -136 -62zM517 581h-131l-63 102l-63 -102h-130l118 180h151z" />
    <glyph glyph-name="udieresis" unicode="&#xfc;" 
d="M263 -15c-122 0 -183 70 -183 187v308h168v-286c0 -55 42 -76 71 -76c31 0 78 19 80 73v289h168v-480h-168v47c-30 -34 -84 -62 -136 -62zM299 656c0 -46 -37 -83 -83 -83s-83 37 -83 83s37 83 83 83s83 -37 83 -83zM514 656c0 -46 -38 -83 -83 -83c-46 0 -83 37 -83 83
s37 83 83 83c45 0 83 -37 83 -83z" />
    <glyph glyph-name="uhungarumlaut" unicode="&#x171;" horiz-adv-x="660" 
d="M263 -15c-122 0 -183 70 -183 187v308h168v-286c0 -55 42 -76 71 -76c31 0 78 19 80 73v289h168v-480h-168v47c-30 -34 -84 -62 -136 -62zM408 761l-107 -180h-138l58 180h187zM632 761l-108 -180h-138l58 180h188z" />
    <glyph glyph-name="ugrave" unicode="&#xf9;" 
d="M263 -15c-122 0 -183 70 -183 187v308h168v-286c0 -55 42 -76 71 -76c31 0 78 19 80 73v289h168v-480h-168v47c-30 -34 -84 -62 -136 -62zM251 581l-107 180h187l58 -180h-138z" />
    <glyph glyph-name="umacron" unicode="&#x16b;" 
d="M263 -15c-122 0 -183 70 -183 187v308h168v-286c0 -55 42 -76 71 -76c31 0 78 19 80 73v289h168v-480h-168v47c-30 -34 -84 -62 -136 -62zM525 707v-126h-403v126h403z" />
    <glyph glyph-name="uogonek" unicode="&#x173;" 
d="M263 -15c-122 0 -183 70 -183 187v308h168v-286c0 -55 42 -76 71 -76c31 0 78 19 80 73v289h168v-480s-36 -35 -47 -58c-16 -34 -1 -57 33 -49v-90c-62 -29 -184 -27 -184 73c0 95 93 122 102 124h-72v47c-30 -34 -84 -62 -136 -62z" />
    <glyph glyph-name="uring" unicode="&#x16f;" 
d="M263 -15c-122 0 -183 70 -183 187v308h168v-286c0 -55 42 -76 71 -76c31 0 78 19 80 73v289h168v-480h-168v47c-30 -34 -84 -62 -136 -62zM323 791c60 0 111 -49 111 -109s-51 -108 -111 -108s-110 48 -110 108s50 109 110 109zM323 646c20 0 37 16 37 36s-17 36 -37 36
s-36 -16 -36 -36s16 -36 36 -36z" />
    <glyph glyph-name="utilde" unicode="&#x169;" 
d="M263 -15c-122 0 -183 70 -183 187v308h168v-286c0 -55 42 -76 71 -76c31 0 78 19 80 73v289h168v-480h-168v47c-30 -34 -84 -62 -136 -62zM426 732l85 -41s-14 -120 -108 -120c-36 0 -63 16 -77 22c-15 6 -46 21 -65 21c-33 0 -39 -40 -39 -40l-85 40s15 120 108 120
c36 0 65 -15 79 -21s48 -21 63 -21c33 0 39 40 39 40z" />
    <glyph glyph-name="wacute" unicode="&#x1e83;" horiz-adv-x="968" 
d="M704 480h184l-157 -480h-161l-86 248l-86 -248h-161l-157 480h184l61 -263l78 263h163l77 -263zM677 761l-108 -180h-138l59 180h187z" />
    <glyph glyph-name="wcircumflex" unicode="&#x175;" horiz-adv-x="968" 
d="M704 480h184l-157 -480h-161l-86 248l-86 -248h-161l-157 480h184l61 -263l78 263h163l77 -263zM678 581h-131l-63 102l-63 -102h-130l118 180h151z" />
    <glyph glyph-name="wdieresis" unicode="&#x1e85;" horiz-adv-x="968" 
d="M704 480h184l-157 -480h-161l-86 248l-86 -248h-161l-157 480h184l61 -263l78 263h163l77 -263zM460 656c0 -46 -37 -83 -83 -83s-83 37 -83 83s37 83 83 83s83 -37 83 -83zM675 656c0 -46 -38 -83 -83 -83c-46 0 -83 37 -83 83s37 83 83 83c45 0 83 -37 83 -83z" />
    <glyph glyph-name="wgrave" unicode="&#x1e81;" horiz-adv-x="968" 
d="M704 480h184l-157 -480h-161l-86 248l-86 -248h-161l-157 480h184l61 -263l78 263h163l77 -263zM398 581l-107 180h187l58 -180h-138z" />
    <glyph glyph-name="yacute" unicode="&#xfd;" horiz-adv-x="713" 
d="M449 480h184s-88 -238 -126 -341c-35 -96 -108 -353 -286 -367c-83 -7 -141 41 -141 41l53 126c69 -38 121 12 153 95l-197 446h187l91 -281zM554 761l-108 -180h-138l59 180h187z" />
    <glyph glyph-name="ycircumflex" unicode="&#x177;" horiz-adv-x="713" 
d="M449 480h184s-88 -238 -126 -341c-35 -96 -108 -353 -286 -367c-83 -7 -141 41 -141 41l53 126c69 -38 121 12 153 95l-197 446h187l91 -281zM564 581h-131l-63 102l-63 -102h-130l118 180h151z" />
    <glyph glyph-name="ydieresis" unicode="&#xff;" horiz-adv-x="713" 
d="M449 480h184s-88 -238 -126 -341c-35 -96 -108 -353 -286 -367c-83 -7 -141 41 -141 41l53 126c69 -38 121 12 153 95l-197 446h187l91 -281zM346 656c0 -46 -37 -83 -83 -83s-83 37 -83 83s37 83 83 83s83 -37 83 -83zM561 656c0 -46 -38 -83 -83 -83
c-46 0 -83 37 -83 83s37 83 83 83c45 0 83 -37 83 -83z" />
    <glyph glyph-name="ygrave" unicode="&#x1ef3;" horiz-adv-x="713" 
d="M449 480h184s-88 -238 -126 -341c-35 -96 -108 -353 -286 -367c-83 -7 -141 41 -141 41l53 126c69 -38 121 12 153 95l-197 446h187l91 -281zM291 581l-107 180h187l58 -180h-138z" />
    <glyph glyph-name="zacute" unicode="&#x17a;" horiz-adv-x="558" 
d="M293 152h185v-152h-398v130l176 199h-164v151h377v-130zM472 761l-108 -180h-138l59 180h187z" />
    <glyph glyph-name="zcaron" unicode="&#x17e;" horiz-adv-x="562" 
d="M293 152h185v-152h-398v130l176 199h-164v151h377v-130zM352 771h130l-117 -180h-151l-118 180h130l63 -101z" />
    <glyph glyph-name="zdotaccent" unicode="&#x17c;" horiz-adv-x="558" 
d="M293 152h185v-152h-398v130l176 199h-164v151h377v-130zM372 656c0 -46 -37 -83 -83 -83c-45 0 -82 37 -82 83s37 83 82 83c46 0 83 -37 83 -83z" />
    <glyph glyph-name="A" unicode="A" horiz-adv-x="898" 
d="M603 0l-43 124h-222l-43 -124h-213l264 700h205l265 -700h-213zM395 286h108l-54 154z" />
    </font>
</defs>
</svg>
